<svg width="21" height="21" viewBox="0 0 21 21" fill="none" xmlns="http://www.w3.org/2000/svg">
<path d="M10.4073 0.1875C0.929644 0.1875 0.1875 0.929644 0.1875 10.4073V10.5927C0.1875 20.0704 0.929644 20.8125 10.4073 20.8125H10.5927C20.0704 20.8125 20.8125 20.0704 20.8125 10.5927V10.5C20.8125 0.936187 20.0638 0.1875 10.5 0.1875H10.4073ZM8.4375 2.25H12.5625C18.3009 2.25 18.75 2.69911 18.75 8.4375V12.5625C18.75 18.3009 18.3009 18.75 12.5625 18.75H8.4375C2.69911 18.75 2.25 18.3009 2.25 12.5625V8.4375C2.25 2.69911 2.69911 2.25 8.4375 2.25ZM15.6532 4.3125C15.0835 4.31405 14.6235 4.77701 14.625 5.34677C14.6265 5.91654 15.0895 6.37655 15.6593 6.375C16.229 6.37345 16.689 5.91049 16.6875 5.34073C16.686 4.77096 16.223 4.31095 15.6532 4.3125ZM10.4879 5.34375C7.64063 5.35045 5.33705 7.66481 5.34375 10.5121C5.35045 13.3594 7.66481 15.663 10.5121 15.6562C13.3594 15.6495 15.663 13.3352 15.6562 10.4879C15.6495 7.64063 13.3352 5.33705 10.4879 5.34375ZM10.493 7.40625C12.2012 7.40212 13.5896 8.78469 13.5938 10.493C13.5974 12.2012 12.2153 13.5896 10.507 13.5938C8.79878 13.5979 7.41038 12.2158 7.40625 10.507C7.40212 8.79878 8.78469 7.41038 10.493 7.40625Z" fill="white"/>
</svg>
