<svg xmlns="http://www.w3.org/2000/svg" viewBox="0 0 566.93 170.08">
    <path fill="#b1b1b1" d="M261.66 0h305.27v170.08H261.66z"/>
    <path fill="#9b2c4e" d="M0 0h261.66v170.08H0z"/>
    <path d="M288.95 94.03c0 1.27-.16 2.4-.48 3.37s-.79 1.79-1.42 2.44-1.4 1.15-2.31 1.49-2.01.5-3.29.5h-2.99c-.14 0-.29-.05-.43-.16s-.22-.3-.22-.58V87.4c0-.28.07-.47.22-.58s.29-.16.43-.16h3.19c1.29 0 2.38.18 3.26.53s1.63.85 2.23 1.49 1.05 1.42 1.35 2.32.46 1.91.46 3.02Zm-1.53.07c0-.88-.11-1.7-.33-2.46s-.57-1.4-1.03-1.95-1.05-.97-1.76-1.28-1.62-.46-2.72-.46h-2.33v12.61h2.34c1.03 0 1.9-.13 2.62-.38s1.31-.65 1.79-1.18.83-1.2 1.07-2.01.36-1.77.36-2.89ZM297.4 91.53c0 .12 0 .22-.01.3s-.02.15-.04.2-.04.09-.07.12-.06.04-.11.04c-.07 0-.15-.02-.25-.05s-.2-.07-.33-.11-.26-.08-.41-.11-.31-.05-.49-.05c-.21 0-.42.04-.62.13s-.42.23-.64.43-.46.46-.7.79-.52.73-.81 1.21v7.17s-.01.09-.04.13-.06.07-.11.09-.12.04-.21.06-.21.02-.35.02c-.13 0-.24 0-.33-.02s-.16-.04-.22-.06-.09-.05-.11-.09-.03-.08-.03-.13V90.99s0-.09.03-.13.06-.07.11-.1.12-.05.21-.06.19-.02.32-.02.24 0 .33.02.15.03.2.06.08.06.1.1.03.08.03.13v1.68c.3-.45.59-.8.84-1.08s.5-.49.74-.64.46-.26.69-.31.45-.08.69-.08c.1 0 .22 0 .35.02s.28.03.43.06.29.07.41.11.21.08.25.12.08.07.09.09.03.06.04.11.02.1.02.18v.29ZM298.59 100.78c0 .46-.07.77-.22.91s-.41.22-.8.22-.62-.07-.77-.22-.22-.44-.22-.9.07-.77.22-.91.41-.22.8-.22.62.07.77.22.22.44.22.9ZM317.93 88.58c0 .1 0 .2-.02.28s-.04.16-.06.22-.06.1-.11.13-.09.05-.13.05c-.09 0-.25-.08-.46-.23s-.5-.33-.86-.51-.79-.35-1.31-.51-1.12-.23-1.82-.23c-.9 0-1.7.17-2.4.5s-1.3.79-1.78 1.37-.85 1.26-1.11 2.06-.38 1.65-.38 2.56c0 1.02.14 1.94.43 2.74s.69 1.48 1.2 2.03 1.12.97 1.83 1.26 1.48.43 2.31.43c.54 0 1.09-.07 1.64-.2s1.07-.34 1.56-.61v-4.91h-3.87c-.12 0-.22-.05-.28-.16s-.09-.27-.09-.47c0-.11 0-.21.02-.29s.04-.15.07-.2.07-.09.12-.12.1-.04.16-.04h4.64c.07 0 .14.01.22.04s.15.06.22.12.12.13.16.23.06.22.06.36v5.64c0 .19-.03.35-.09.48s-.19.26-.4.38-.49.25-.84.4-.71.27-1.09.36-.75.17-1.13.22-.75.08-1.12.08c-1.15 0-2.17-.19-3.08-.56s-1.66-.89-2.29-1.57-1.1-1.48-1.42-2.41-.49-1.96-.49-3.09.18-2.26.53-3.23.86-1.8 1.5-2.49 1.42-1.22 2.31-1.6 1.89-.57 2.98-.57a8.335 8.335 0 0 1 2.87.52c.39.15.72.3 1 .47s.46.3.56.4.16.19.2.29.05.23.05.41ZM329.81 95.75c0 .28-.07.47-.22.58s-.29.16-.43.16h-7.23c0 .66.06 1.25.19 1.78s.34.99.64 1.37.68.67 1.16.87 1.06.3 1.76.3c.49 0 .93-.04 1.32-.13s.73-.18 1.01-.29.52-.2.7-.29.31-.13.39-.13c.05 0 .09.01.13.04s.07.06.09.11.04.12.05.19.02.18.02.29c0 .05 0 .11-.01.16s-.02.1-.03.14-.03.08-.05.12-.05.08-.09.12-.16.11-.36.21-.47.2-.8.29-.71.19-1.14.26-.9.12-1.4.12c-.82 0-1.55-.12-2.18-.37s-1.16-.61-1.59-1.09-.76-1.08-.98-1.79-.33-1.54-.33-2.47.12-1.7.35-2.41.56-1.31.99-1.81.95-.88 1.55-1.14 1.28-.39 2.02-.39c.8 0 1.48.13 2.04.4s1.03.62 1.39 1.07.63.97.8 1.56.25 1.22.25 1.88v.28Zm-1.44-.41c.02-1.12-.23-2-.77-2.64s-1.32-.95-2.36-.95c-.53 0-1 .1-1.4.3s-.74.46-1.02.79-.49.71-.64 1.14-.23.88-.26 1.35h6.45ZM341.81 96.19c0 .84-.11 1.62-.33 2.33s-.54 1.33-.98 1.85-.97.93-1.62 1.22-1.4.44-2.26.44-1.55-.13-2.17-.39-1.14-.64-1.56-1.12-.73-1.08-.94-1.78-.31-1.48-.31-2.36.11-1.62.32-2.33.54-1.33.97-1.85.97-.92 1.62-1.21 1.41-.43 2.27-.43 1.55.13 2.17.39 1.14.63 1.55 1.12.73 1.08.94 1.78.32 1.48.32 2.34Zm-1.48.13c0-.6-.06-1.18-.18-1.72s-.31-1.03-.59-1.45-.64-.75-1.1-1-1.04-.37-1.72-.37c-.63 0-1.18.11-1.64.34s-.84.54-1.13.94-.51.88-.65 1.42-.21 1.14-.21 1.77.06 1.19.18 1.74.31 1.03.59 1.45.64.74 1.1.98 1.04.36 1.72.36c.63 0 1.18-.11 1.64-.34s.84-.54 1.13-.94.51-.87.65-1.42.21-1.14.21-1.78ZM350.22 91.53c0 .12 0 .22-.01.3s-.02.15-.04.2-.04.09-.07.12-.06.04-.11.04c-.07 0-.15-.02-.25-.05s-.2-.07-.33-.11-.26-.08-.41-.11-.31-.05-.49-.05c-.21 0-.42.04-.62.13s-.42.23-.64.43-.46.46-.7.79-.52.73-.81 1.21v7.17s-.01.09-.04.13-.06.07-.11.09-.12.04-.21.06-.21.02-.35.02c-.13 0-.24 0-.33-.02s-.16-.04-.22-.06-.09-.05-.11-.09-.03-.08-.03-.13V90.99s0-.09.03-.13.06-.07.11-.1.12-.05.21-.06.19-.02.32-.02.24 0 .33.02.15.03.2.06.08.06.1.1.03.08.03.13v1.68c.3-.45.59-.8.84-1.08s.5-.49.74-.64.46-.26.69-.31.45-.08.69-.08c.1 0 .22 0 .35.02s.28.03.43.06.29.07.41.11.21.08.25.12.08.07.09.09.03.06.04.11.02.1.02.18v.29ZM360.16 91.35c0 .22-.04.37-.11.46s-.16.13-.27.13h-1.68c.33.34.56.7.69 1.1s.19.81.19 1.25c0 .6-.1 1.14-.29 1.61s-.46.87-.81 1.19-.77.57-1.25.74-1.02.26-1.61.26c-.48 0-.93-.07-1.36-.2s-.77-.3-1.01-.49c-.16.16-.29.34-.39.54s-.15.44-.15.7c0 .3.14.55.43.75s.65.31 1.11.33l2.87.12c.48.02.94.08 1.37.2s.8.29 1.12.52.57.51.76.85.28.73.28 1.18-.1.92-.29 1.35-.49.81-.89 1.13-.92.58-1.54.77-1.37.29-2.24.29-1.53-.07-2.12-.22-1.06-.34-1.43-.6-.64-.55-.81-.9-.25-.71-.25-1.11c0-.27.03-.53.09-.77s.16-.47.29-.69.29-.43.48-.63.41-.41.66-.62c-.4-.2-.69-.45-.88-.74s-.28-.6-.28-.93c0-.48.09-.91.28-1.28s.41-.71.68-1c-.23-.3-.4-.62-.53-.97s-.19-.77-.19-1.27c0-.59.1-1.13.29-1.6s.47-.87.81-1.2.76-.58 1.25-.76 1.02-.26 1.59-.26c.3 0 .59.02.86.05s.52.08.74.13h3.13c.13 0 .23.05.29.15s.09.25.09.45Zm-1.5 11.31c0-.52-.21-.91-.63-1.18s-.98-.42-1.68-.45l-3.08-.11c-.28.22-.51.43-.69.62s-.32.38-.43.57-.18.36-.22.54-.06.35-.06.53c0 .58.29 1.02.87 1.31s1.39.45 2.43.45c.66 0 1.21-.06 1.65-.19s.8-.3 1.07-.51.47-.45.59-.73.18-.56.18-.86Zm-1.12-8.36c0-.8-.22-1.43-.66-1.89s-1.07-.68-1.88-.68c-.41 0-.78.07-1.09.21s-.57.33-.77.57-.36.52-.46.84-.15.66-.15 1.02c0 .78.22 1.4.66 1.85s1.06.67 1.86.67c.42 0 .79-.07 1.11-.21s.58-.33.78-.57.36-.52.46-.83.15-.65.15-.99ZM378.54 94.03c0 1.27-.16 2.4-.48 3.37s-.79 1.79-1.42 2.44-1.4 1.15-2.31 1.49-2.01.5-3.29.5h-2.99c-.14 0-.29-.05-.43-.16s-.22-.3-.22-.58V87.4c0-.28.07-.47.22-.58s.29-.16.43-.16h3.19c1.29 0 2.38.18 3.26.53s1.63.85 2.23 1.49 1.05 1.42 1.35 2.32.46 1.91.46 3.02Zm-1.54.07c0-.88-.11-1.7-.33-2.46s-.57-1.4-1.03-1.95-1.05-.97-1.76-1.28-1.62-.46-2.72-.46h-2.33v12.61h2.34c1.03 0 1.9-.13 2.62-.38s1.31-.65 1.79-1.18.83-1.2 1.07-2.01.36-1.77.36-2.89ZM389.66 101.6s0 .09-.03.13-.06.07-.11.09-.12.04-.21.06-.19.02-.32.02c-.14 0-.25 0-.34-.02s-.15-.04-.2-.06-.08-.05-.1-.09-.03-.08-.03-.13v-1.5c-.61.68-1.21 1.17-1.79 1.48s-1.16.46-1.74.46c-.7 0-1.28-.12-1.76-.35s-.86-.55-1.15-.96-.5-.87-.63-1.4-.19-1.17-.19-1.92V91s0-.09.03-.13.06-.07.11-.1.13-.05.22-.06.2-.02.33-.02c.14 0 .26 0 .35.02s.16.03.21.06.09.06.11.1.04.08.04.13v6.28c0 .66.05 1.19.15 1.61s.25.77.46 1.06.46.52.78.68.69.24 1.11.24c.54 0 1.08-.19 1.61-.57s1.1-.95 1.71-1.69V91s0-.09.03-.13.06-.07.11-.1.13-.05.22-.06.21-.02.35-.02c.13 0 .24 0 .33.02s.16.03.21.06.09.06.11.1.04.08.04.13v10.61ZM408.09 101.6s-.01.09-.04.13-.06.07-.11.09-.12.04-.21.06-.2.02-.33.02c-.14 0-.26 0-.35-.02s-.16-.04-.22-.06-.09-.05-.11-.09-.03-.08-.03-.13v-6.53c0-.5-.04-.96-.13-1.37s-.23-.76-.42-1.05-.43-.52-.73-.68-.64-.24-1.04-.24c-.49 0-.99.19-1.49.57s-1.06.95-1.66 1.69v7.61s-.01.09-.04.13-.06.07-.11.09-.12.04-.21.06-.2.02-.33.02-.24 0-.33-.02-.16-.04-.22-.06-.09-.05-.11-.09-.03-.08-.03-.13v-6.53c0-.5-.05-.96-.14-1.37s-.24-.76-.43-1.05-.43-.52-.73-.68-.64-.24-1.04-.24c-.49 0-.99.19-1.49.57s-1.05.95-1.65 1.69v7.61s-.01.09-.04.13-.06.07-.11.09-.12.04-.21.06-.21.02-.35.02c-.13 0-.24 0-.33-.02s-.16-.04-.22-.06-.09-.05-.11-.09-.03-.08-.03-.13V90.99s0-.09.03-.13.06-.07.11-.1.12-.05.21-.06.19-.02.32-.02.24 0 .33.02.15.03.2.06.08.06.1.1.03.08.03.13v1.5c.61-.68 1.19-1.17 1.73-1.48s1.09-.46 1.63-.46c.45 0 .84.05 1.19.16s.65.25.92.45.49.42.68.69.34.56.46.88c.37-.41.71-.75 1.04-1.03s.63-.5.93-.67.58-.29.85-.36.54-.11.81-.11c.66 0 1.22.12 1.68.35s.82.55 1.1.95.48.86.6 1.39.18 1.09.18 1.69v6.66ZM420.62 96.16c0 .91-.1 1.72-.29 2.44s-.49 1.34-.87 1.85-.86.9-1.43 1.17-1.22.41-1.95.41c-.33 0-.63-.03-.91-.1s-.55-.17-.81-.32-.54-.34-.81-.56-.58-.5-.9-.82v1.37a.23.23 0 0 1-.16.23c-.06.02-.12.04-.2.05s-.18.02-.29.02-.22 0-.3-.02-.15-.03-.2-.05-.09-.05-.11-.09-.03-.09-.03-.14V85.8s0-.09.03-.13.06-.07.11-.1.13-.05.22-.06.2-.02.33-.02c.14 0 .26 0 .35.02s.16.03.21.06.09.06.11.1.04.08.04.13v6.62c.34-.35.66-.65.96-.88s.6-.43.89-.57.58-.25.86-.31.58-.09.88-.09c.77 0 1.42.15 1.96.45s.98.7 1.32 1.21.59 1.1.74 1.78.23 1.4.23 2.17Zm-1.47.23c0-.59-.05-1.17-.14-1.72s-.25-1.05-.48-1.48-.53-.78-.9-1.04-.84-.39-1.41-.39c-.27 0-.54.04-.81.12s-.54.21-.83.39-.57.41-.87.7-.62.64-.96 1.06v4.62c.59.71 1.15 1.26 1.69 1.63s1.11.57 1.69.57c.54 0 1-.13 1.38-.39s.7-.6.94-1.03.42-.9.53-1.43.16-1.07.16-1.61ZM430.66 101.6c0 .08-.03.14-.08.18s-.12.07-.2.09-.19.03-.33.03c-.13 0-.25 0-.34-.03s-.17-.05-.22-.09-.08-.1-.08-.18v-1.18c-.48.52-1 .91-1.58 1.2s-1.17.42-1.79.42c-.55 0-1.05-.07-1.49-.22s-.81-.35-1.12-.62-.54-.6-.7-.98-.25-.81-.25-1.29c0-.59.12-1.1.36-1.53s.59-.79 1.03-1.08.98-.51 1.61-.65 1.32-.22 2.08-.22h1.69v-.91c0-.45-.05-.85-.14-1.2s-.25-.64-.46-.87-.48-.41-.82-.53-.75-.18-1.23-.18-.89.06-1.26.17-.7.24-.98.38-.51.27-.7.38-.31.17-.39.17c-.05 0-.09 0-.13-.02s-.07-.04-.1-.09-.05-.1-.06-.16-.02-.15-.02-.24c0-.16.01-.29.04-.39s.08-.2.18-.29.27-.21.52-.35.54-.26.86-.37.67-.21 1.05-.28.75-.11 1.12-.11c.73 0 1.34.09 1.84.26s.9.43 1.21.76.53.73.66 1.21.2 1.03.2 1.63v7.17Zm-1.4-5h-1.93c-.56 0-1.05.05-1.48.15s-.77.25-1.05.45-.49.43-.63.7-.21.59-.21.94c0 .61.19 1.1.58 1.46s.93.54 1.63.54c.55 0 1.07-.14 1.55-.43s.99-.72 1.53-1.32v-2.5ZM441.33 100.03c0 .09 0 .18-.01.25s-.02.14-.04.19l-.06.15c-.02.05-.09.12-.19.22s-.27.23-.51.39-.51.29-.8.41-.62.21-.96.29-.7.11-1.07.11c-.73 0-1.38-.12-1.95-.37s-1.04-.61-1.42-1.09-.67-1.07-.87-1.77-.3-1.51-.3-2.42c0-1.03.12-1.91.37-2.65s.58-1.34 1.01-1.8.93-.81 1.51-1.04 1.19-.33 1.85-.33c.35 0 .69.03 1.01.1s.62.15.88.26.51.23.72.38.37.26.46.36.16.17.2.22.06.11.08.17.03.13.04.21.01.16.01.26c0 .23-.03.38-.1.47s-.14.13-.22.13c-.11 0-.24-.07-.4-.21s-.37-.29-.62-.46-.55-.32-.91-.46-.78-.21-1.27-.21c-1.02 0-1.8.39-2.35 1.17s-.83 1.91-.83 3.39c0 .74.07 1.39.22 1.95s.36 1.02.64 1.39.62.65 1.01.83.85.28 1.35.28c.47 0 .88-.07 1.24-.22s.67-.31.94-.49.49-.34.66-.49.31-.22.39-.22c.05 0 .09.01.12.04s.06.07.09.13.04.13.05.21.02.18.02.29ZM452.13 101.6s-.01.09-.04.13-.06.07-.11.09-.12.04-.21.06-.2.02-.33.02c-.14 0-.26 0-.35-.02s-.16-.04-.21-.06-.09-.05-.11-.09-.04-.08-.04-.13v-6.29c0-.66-.05-1.19-.15-1.6s-.25-.76-.46-1.05-.46-.52-.78-.68-.69-.24-1.11-.24c-.54 0-1.08.19-1.62.57s-1.11.95-1.7 1.69v7.61s-.01.09-.04.13-.06.07-.11.09-.12.04-.21.06-.21.02-.35.02c-.13 0-.24 0-.33-.02s-.16-.04-.22-.06-.09-.05-.11-.09-.03-.08-.03-.13v-15.8s0-.09.03-.13.06-.07.11-.1.13-.05.22-.06.2-.02.33-.02c.14 0 .26 0 .35.02s.16.03.21.06.09.06.11.1.04.08.04.13v6.62c.58-.64 1.16-1.11 1.73-1.41s1.16-.45 1.73-.45c.7 0 1.28.12 1.76.35s.86.55 1.15.95.5.86.63 1.39.19 1.17.19 1.92v6.42ZM288.95 118.03c0 1.27-.16 2.4-.48 3.37s-.79 1.79-1.42 2.44-1.4 1.15-2.31 1.49-2.01.5-3.29.5h-2.99c-.14 0-.29-.05-.43-.16s-.22-.3-.22-.58V111.4c0-.28.07-.47.22-.58s.29-.16.43-.16h3.19c1.29 0 2.38.18 3.26.53s1.63.85 2.23 1.49 1.05 1.42 1.35 2.32.46 1.91.46 3.02Zm-1.53.07c0-.88-.11-1.7-.33-2.46s-.57-1.4-1.03-1.95-1.05-.97-1.76-1.28-1.62-.46-2.72-.46h-2.33v12.61h2.34c1.03 0 1.9-.13 2.62-.38s1.31-.65 1.79-1.18.83-1.2 1.07-2.01.36-1.77.36-2.89ZM297.4 115.53c0 .12 0 .22-.01.3s-.02.15-.04.2-.04.09-.07.12-.06.04-.11.04c-.07 0-.15-.02-.25-.05s-.2-.07-.33-.11-.26-.08-.41-.11-.31-.05-.49-.05c-.21 0-.42.04-.62.13s-.42.23-.64.43-.46.46-.7.79-.52.73-.81 1.21v7.17s-.01.09-.04.13-.06.07-.11.09-.12.04-.21.06-.21.02-.35.02c-.13 0-.24 0-.33-.02s-.16-.04-.22-.06-.09-.05-.11-.09-.03-.08-.03-.13v-10.61s0-.09.03-.13.06-.07.11-.1.12-.05.21-.06.19-.02.32-.02.24 0 .33.02.15.03.2.06.08.06.1.1.03.08.03.13v1.68c.3-.45.59-.8.84-1.08s.5-.49.74-.64.46-.26.69-.31.45-.08.69-.08c.1 0 .22 0 .35.02s.28.03.43.06.29.07.41.11.21.08.25.12.08.07.09.09.03.06.04.11.02.1.02.18v.29ZM298.59 124.78c0 .46-.07.77-.22.91s-.41.22-.8.22-.62-.07-.77-.22-.22-.44-.22-.9.07-.77.22-.91.41-.22.8-.22.62.07.77.22.22.44.22.9ZM310.07 122.23c0 .56-.05 1.08-.15 1.55s-.27.87-.51 1.21-.56.6-.96.78-.89.28-1.49.28c-.21 0-.42-.02-.62-.06s-.39-.09-.56-.15-.32-.12-.45-.19-.21-.12-.26-.17-.08-.09-.1-.13-.04-.09-.06-.14-.03-.12-.04-.2-.01-.17-.01-.28c0-.12 0-.21.02-.29s.04-.14.06-.18.06-.07.1-.09.09-.03.14-.03c.06 0 .14.03.25.1s.22.14.37.21.31.14.51.21.42.1.68.1c.29 0 .54-.04.74-.11s.38-.21.51-.41.23-.48.3-.84.1-.82.1-1.4v-11.09s.01-.09.04-.13.06-.07.12-.09.13-.04.22-.06.21-.02.34-.02.25 0 .34.02.17.04.22.06.09.05.12.09.04.08.04.13v11.32ZM322.99 120.19c0 .84-.11 1.62-.33 2.33s-.54 1.33-.98 1.85-.97.93-1.62 1.22-1.4.44-2.26.44-1.55-.13-2.17-.39-1.14-.64-1.56-1.12-.73-1.08-.94-1.78-.31-1.48-.31-2.36.11-1.62.32-2.33.54-1.33.97-1.85.97-.92 1.62-1.21 1.41-.43 2.27-.43 1.55.13 2.17.39 1.14.63 1.55 1.12.73 1.08.94 1.78.32 1.48.32 2.34Zm-1.47.13c0-.6-.06-1.18-.18-1.72s-.31-1.03-.59-1.45-.64-.75-1.1-1-1.04-.37-1.72-.37c-.63 0-1.18.11-1.64.34s-.84.54-1.13.94-.51.88-.65 1.42-.21 1.14-.21 1.77.06 1.19.18 1.74.31 1.03.59 1.45.64.74 1.1.98 1.04.36 1.72.36c.63 0 1.18-.11 1.64-.34s.84-.54 1.13-.94.51-.87.65-1.42.21-1.14.21-1.78ZM334.12 125.6s-.01.09-.04.13-.06.07-.11.09-.12.04-.21.06-.2.02-.33.02c-.14 0-.26 0-.35-.02s-.16-.04-.21-.06-.09-.05-.11-.09-.04-.08-.04-.13v-6.29c0-.66-.05-1.19-.15-1.6s-.25-.76-.46-1.05-.46-.52-.78-.68-.69-.24-1.11-.24c-.54 0-1.08.19-1.62.57s-1.11.95-1.7 1.69v7.61s-.01.09-.04.13-.06.07-.11.09-.12.04-.21.06-.21.02-.35.02c-.13 0-.24 0-.33-.02s-.16-.04-.22-.06-.09-.05-.11-.09-.03-.08-.03-.13v-15.8s0-.09.03-.13.06-.07.11-.1.13-.05.22-.06.2-.02.33-.02c.14 0 .26 0 .35.02s.16.03.21.06.09.06.11.1.04.08.04.13v6.62c.58-.64 1.16-1.11 1.73-1.41s1.16-.45 1.73-.45c.7 0 1.28.12 1.76.35s.86.55 1.15.95.5.86.63 1.39.19 1.17.19 1.92v6.42ZM344.82 125.6c0 .08-.03.14-.08.18s-.12.07-.2.09-.19.03-.33.03c-.13 0-.25 0-.34-.03s-.17-.05-.22-.09-.08-.1-.08-.18v-1.18c-.48.52-1 .91-1.58 1.2s-1.17.42-1.79.42c-.55 0-1.05-.07-1.49-.22s-.81-.35-1.12-.62-.54-.6-.7-.98-.25-.81-.25-1.29c0-.59.12-1.1.36-1.53s.59-.79 1.03-1.08.98-.51 1.61-.65 1.32-.22 2.09-.22h1.69v-.91c0-.45-.05-.85-.14-1.2s-.25-.64-.46-.87-.48-.41-.82-.53-.75-.18-1.23-.18-.89.06-1.27.17-.7.24-.98.38-.51.27-.7.38-.31.17-.39.17c-.05 0-.09 0-.13-.02s-.07-.04-.1-.09-.05-.1-.06-.16-.02-.15-.02-.24c0-.16.01-.29.04-.39s.08-.2.18-.29.27-.21.52-.35.54-.26.86-.37.67-.21 1.05-.28.75-.11 1.12-.11c.73 0 1.34.09 1.84.26s.9.43 1.21.76.53.73.66 1.21.2 1.03.2 1.63v7.17Zm-1.39-5h-1.93c-.56 0-1.05.05-1.48.15s-.77.25-1.05.45-.49.43-.63.7-.21.59-.21.94c0 .61.19 1.1.58 1.46s.93.54 1.63.54c.55 0 1.07-.14 1.55-.43s.99-.72 1.53-1.32v-2.5ZM356.69 125.6s-.01.09-.04.13-.06.07-.11.09-.12.04-.21.06-.2.02-.33.02c-.14 0-.26 0-.35-.02s-.16-.04-.21-.06-.09-.05-.11-.09-.04-.08-.04-.13v-6.29c0-.66-.05-1.19-.15-1.6s-.25-.76-.46-1.05-.46-.52-.78-.68-.69-.24-1.11-.24c-.54 0-1.08.19-1.62.57s-1.11.95-1.7 1.69v7.61s-.01.09-.04.13-.06.07-.11.09-.12.04-.21.06-.21.02-.35.02c-.13 0-.24 0-.33-.02s-.16-.04-.22-.06-.09-.05-.11-.09-.03-.08-.03-.13V115s0-.09.03-.13.06-.07.11-.1.12-.05.21-.06.19-.02.32-.02.24 0 .33.02.15.03.2.06.08.06.1.1.03.08.03.13v1.5c.61-.68 1.21-1.17 1.79-1.48s1.17-.46 1.75-.46c.7 0 1.28.12 1.76.35s.86.55 1.15.95.5.86.63 1.39.19 1.17.19 1.92v6.42ZM368.56 125.6s-.01.09-.04.13-.06.07-.11.09-.12.04-.21.06-.2.02-.33.02c-.14 0-.26 0-.35-.02s-.16-.04-.21-.06-.09-.05-.11-.09-.04-.08-.04-.13v-6.29c0-.66-.05-1.19-.15-1.6s-.25-.76-.46-1.05-.46-.52-.78-.68-.69-.24-1.11-.24c-.54 0-1.08.19-1.62.57s-1.11.95-1.7 1.69v7.61s-.01.09-.04.13-.06.07-.11.09-.12.04-.21.06-.21.02-.35.02c-.13 0-.24 0-.33-.02s-.16-.04-.22-.06-.09-.05-.11-.09-.03-.08-.03-.13V115s0-.09.03-.13.06-.07.11-.1.12-.05.21-.06.19-.02.32-.02.24 0 .33.02.15.03.2.06.08.06.1.1.03.08.03.13v1.5c.61-.68 1.21-1.17 1.79-1.48s1.17-.46 1.75-.46c.7 0 1.28.12 1.76.35s.86.55 1.15.95.5.86.63 1.39.19 1.17.19 1.92v6.42ZM380.47 119.75c0 .28-.07.47-.22.58s-.29.16-.43.16h-7.23c0 .66.06 1.25.19 1.78s.34.99.64 1.37.68.67 1.16.87 1.06.3 1.76.3c.49 0 .93-.04 1.32-.13s.73-.18 1.01-.29.52-.2.7-.29.31-.13.39-.13c.05 0 .09.01.13.04s.07.06.09.11.04.12.05.19.02.18.02.29c0 .05 0 .11-.01.16s-.02.1-.03.14-.03.08-.05.12-.05.08-.09.12-.16.11-.36.21-.47.2-.8.29-.71.19-1.14.26-.9.12-1.4.12c-.82 0-1.55-.12-2.18-.37s-1.16-.61-1.59-1.09-.76-1.08-.98-1.79-.33-1.54-.33-2.47.12-1.7.35-2.41.56-1.31.99-1.81.95-.88 1.55-1.14 1.28-.39 2.02-.39c.8 0 1.48.13 2.04.4s1.03.62 1.39 1.07.63.97.8 1.56.25 1.22.25 1.88v.28Zm-1.44-.41c.02-1.12-.23-2-.77-2.64s-1.32-.95-2.36-.95c-.53 0-1 .1-1.4.3s-.74.46-1.02.79-.49.71-.64 1.14-.23.88-.26 1.35h6.45ZM389.32 122.78c0 .51-.09.96-.28 1.37s-.46.74-.8 1.03-.76.5-1.25.64-1.02.22-1.61.22c-.37 0-.71-.03-1.04-.09s-.62-.13-.89-.22-.49-.19-.67-.29-.32-.19-.4-.27-.15-.18-.19-.29-.06-.27-.06-.47c0-.1 0-.19.02-.27s.04-.14.06-.2.05-.1.09-.12.08-.04.13-.04c.09 0 .21.05.38.16s.37.23.62.36.54.25.88.36.73.16 1.18.16c.36 0 .69-.04.98-.12s.55-.2.77-.35.39-.36.51-.6.18-.53.18-.86-.08-.61-.23-.83-.36-.42-.62-.59-.54-.32-.87-.45-.66-.26-1-.4-.67-.29-1-.45-.61-.36-.87-.6-.46-.52-.62-.84-.23-.72-.23-1.18c0-.37.07-.73.21-1.08s.36-.67.65-.96.67-.51 1.12-.68 1-.26 1.62-.26c.27 0 .53.02.79.06s.5.1.71.17.4.15.56.23.28.15.36.22.14.12.16.16.05.09.06.13.02.1.03.17.01.15.01.24 0 .18-.02.25-.03.14-.05.19-.05.1-.09.12-.08.04-.12.04c-.06 0-.16-.04-.28-.13s-.29-.18-.49-.28-.45-.2-.73-.28-.61-.13-.97-.13-.69.04-.97.13-.51.21-.69.36-.31.34-.4.55-.13.44-.13.69c0 .34.08.63.23.87s.36.44.62.61.55.32.88.46.66.27 1 .4.67.28 1 .44.62.35.88.58.46.5.62.81.23.7.23 1.14ZM407.99 118.03c0 1.27-.16 2.4-.48 3.37s-.79 1.79-1.42 2.44-1.4 1.15-2.31 1.49-2.01.5-3.29.5h-2.99c-.14 0-.29-.05-.43-.16s-.22-.3-.22-.58V111.4c0-.28.07-.47.22-.58s.29-.16.43-.16h3.19c1.29 0 2.38.18 3.26.53s1.63.85 2.23 1.49 1.05 1.42 1.35 2.32.46 1.91.46 3.02Zm-1.53.07c0-.88-.11-1.7-.33-2.46s-.57-1.4-1.03-1.95-1.05-.97-1.76-1.28-1.62-.46-2.72-.46h-2.33v12.61h2.34c1.03 0 1.9-.13 2.62-.38s1.31-.65 1.79-1.18.83-1.2 1.07-2.01.36-1.77.36-2.89ZM419.11 125.6s0 .09-.03.13-.06.07-.11.09-.12.04-.21.06-.19.02-.32.02c-.14 0-.25 0-.34-.02s-.15-.04-.2-.06-.08-.05-.1-.09-.03-.08-.03-.13v-1.5c-.61.68-1.21 1.17-1.79 1.48s-1.16.46-1.74.46c-.7 0-1.28-.12-1.76-.35s-.86-.55-1.15-.96-.5-.87-.63-1.4-.19-1.17-.19-1.92V115s0-.09.03-.13.06-.07.11-.1.13-.05.22-.06.2-.02.33-.02c.14 0 .26 0 .35.02s.16.03.21.06.09.06.11.1.04.08.04.13v6.28c0 .66.05 1.19.15 1.61s.25.77.46 1.06.46.52.78.68.69.24 1.11.24c.54 0 1.08-.19 1.61-.57s1.1-.95 1.71-1.69V115s0-.09.03-.13.06-.07.11-.1.13-.05.22-.06.21-.02.35-.02c.13 0 .24 0 .33.02s.16.03.21.06.09.06.11.1.04.08.04.13v10.61ZM437.54 125.6s-.01.09-.04.13-.06.07-.11.09-.12.04-.21.06-.2.02-.33.02c-.14 0-.26 0-.35-.02s-.16-.04-.22-.06-.09-.05-.11-.09-.03-.08-.03-.13v-6.53c0-.5-.04-.96-.13-1.37s-.23-.76-.42-1.05-.43-.52-.73-.68-.64-.24-1.04-.24c-.49 0-.99.19-1.49.57s-1.06.95-1.66 1.69v7.61s-.01.09-.04.13-.06.07-.11.09-.12.04-.21.06-.2.02-.33.02-.24 0-.33-.02-.16-.04-.22-.06-.09-.05-.11-.09-.03-.08-.03-.13v-6.53c0-.5-.05-.96-.14-1.37s-.24-.76-.43-1.05-.43-.52-.73-.68-.64-.24-1.04-.24c-.49 0-.99.19-1.49.57s-1.05.95-1.65 1.69v7.61s-.01.09-.04.13-.06.07-.11.09-.12.04-.21.06-.21.02-.35.02c-.13 0-.24 0-.33-.02s-.16-.04-.22-.06-.09-.05-.11-.09-.03-.08-.03-.13v-10.61s0-.09.03-.13.06-.07.11-.1.12-.05.21-.06.19-.02.32-.02.24 0 .33.02.15.03.2.06.08.06.1.1.03.08.03.13v1.5c.61-.68 1.19-1.17 1.73-1.48s1.09-.46 1.63-.46c.45 0 .84.05 1.19.16s.65.25.92.45.49.42.68.69.34.56.46.88c.37-.41.71-.75 1.04-1.03s.63-.5.93-.67.58-.29.85-.36.54-.11.81-.11c.66 0 1.22.12 1.68.35s.82.55 1.1.95.48.86.6 1.39.18 1.09.18 1.69v6.66ZM450.07 120.16c0 .91-.1 1.72-.29 2.44s-.49 1.34-.87 1.85-.86.9-1.43 1.17-1.22.41-1.95.41c-.33 0-.63-.03-.91-.1s-.55-.17-.81-.32-.54-.34-.81-.56-.58-.5-.9-.82v1.37a.23.23 0 0 1-.16.23c-.06.02-.12.04-.2.05s-.18.02-.29.02-.22 0-.3-.02-.15-.03-.2-.05-.09-.05-.11-.09-.03-.09-.03-.14v-15.8s0-.09.03-.13.06-.07.11-.1.13-.05.22-.06.2-.02.33-.02c.14 0 .26 0 .35.02s.16.03.21.06.09.06.11.1.04.08.04.13v6.62c.34-.35.66-.65.96-.88s.6-.43.89-.57.58-.25.86-.31.58-.09.88-.09c.77 0 1.42.15 1.96.45s.98.7 1.32 1.21.59 1.1.74 1.78.23 1.4.23 2.17Zm-1.47.23c0-.59-.05-1.17-.14-1.72s-.25-1.05-.48-1.48-.53-.78-.9-1.04-.84-.39-1.41-.39c-.27 0-.54.04-.81.12s-.54.21-.83.39-.57.41-.87.7-.62.64-.96 1.06v4.62c.59.71 1.15 1.26 1.69 1.63s1.11.57 1.69.57c.54 0 1-.13 1.38-.39s.7-.6.94-1.03.42-.9.53-1.43.16-1.07.16-1.61ZM460.11 125.6c0 .08-.03.14-.08.18s-.12.07-.2.09-.19.03-.33.03c-.13 0-.25 0-.34-.03s-.17-.05-.22-.09-.08-.1-.08-.18v-1.18c-.48.52-1 .91-1.58 1.2s-1.17.42-1.79.42c-.55 0-1.05-.07-1.49-.22s-.81-.35-1.12-.62-.54-.6-.7-.98-.25-.81-.25-1.29c0-.59.12-1.1.36-1.53s.59-.79 1.03-1.08.98-.51 1.61-.65 1.32-.22 2.09-.22h1.69v-.91c0-.45-.05-.85-.14-1.2s-.25-.64-.46-.87-.48-.41-.82-.53-.75-.18-1.23-.18-.89.06-1.27.17-.7.24-.98.38-.51.27-.7.38-.31.17-.39.17c-.05 0-.09 0-.13-.02s-.07-.04-.1-.09-.05-.1-.06-.16-.02-.15-.02-.24c0-.16.01-.29.04-.39s.08-.2.18-.29.27-.21.52-.35.54-.26.86-.37.67-.21 1.05-.28.75-.11 1.12-.11c.73 0 1.34.09 1.84.26s.9.43 1.21.76.53.73.66 1.21.2 1.03.2 1.63v7.17Zm-1.4-5h-1.93c-.56 0-1.05.05-1.48.15s-.77.25-1.05.45-.49.43-.63.7-.21.59-.21.94c0 .61.19 1.1.58 1.46s.93.54 1.63.54c.55 0 1.07-.14 1.55-.43s.99-.72 1.53-1.32v-2.5ZM470.78 124.03c0 .09 0 .18-.01.25s-.02.14-.04.19l-.06.15c-.02.05-.09.12-.19.22s-.27.23-.51.39-.51.29-.8.41-.62.21-.96.29-.7.11-1.07.11c-.73 0-1.38-.12-1.95-.37s-1.04-.61-1.42-1.09-.67-1.07-.87-1.77-.3-1.51-.3-2.42c0-1.03.12-1.91.37-2.65s.58-1.34 1.01-1.8.93-.81 1.51-1.04 1.19-.33 1.85-.33c.35 0 .69.03 1.01.1s.62.15.88.26.51.23.72.38.37.26.46.36.16.17.2.22.06.11.08.17.03.13.04.21.01.16.01.26c0 .23-.03.38-.1.47s-.14.13-.22.13c-.11 0-.24-.07-.4-.21s-.37-.29-.62-.46-.55-.32-.91-.46-.78-.21-1.27-.21c-1.02 0-1.8.39-2.35 1.17s-.83 1.91-.83 3.39c0 .74.07 1.39.22 1.95s.36 1.02.64 1.39.62.65 1.01.83.85.28 1.35.28c.47 0 .88-.07 1.24-.22s.67-.31.94-.49.49-.34.66-.49.31-.22.39-.22c.05 0 .09.01.12.04s.06.07.09.13.04.13.05.21.02.18.02.29ZM481.58 125.6s-.01.09-.04.13-.06.07-.11.09-.12.04-.21.06-.2.02-.33.02c-.14 0-.26 0-.35-.02s-.16-.04-.21-.06-.09-.05-.11-.09-.04-.08-.04-.13v-6.29c0-.66-.05-1.19-.15-1.6s-.25-.76-.46-1.05-.46-.52-.78-.68-.69-.24-1.11-.24c-.54 0-1.08.19-1.62.57s-1.11.95-1.7 1.69v7.61s-.01.09-.04.13-.06.07-.11.09-.12.04-.21.06-.21.02-.35.02c-.13 0-.24 0-.33-.02s-.16-.04-.22-.06-.09-.05-.11-.09-.03-.08-.03-.13v-15.8s0-.09.03-.13.06-.07.11-.1.13-.05.22-.06.2-.02.33-.02c.14 0 .26 0 .35.02s.16.03.21.06.09.06.11.1.04.08.04.13v6.62c.58-.64 1.16-1.11 1.73-1.41s1.16-.45 1.73-.45c.7 0 1.28.12 1.76.35s.86.55 1.15.95.5.86.63 1.39.19 1.17.19 1.92v6.42ZM288.95 142.03c0 1.27-.16 2.4-.48 3.37s-.79 1.79-1.42 2.44-1.4 1.15-2.31 1.49-2.01.5-3.29.5h-2.99c-.14 0-.29-.05-.43-.16s-.22-.3-.22-.58V135.4c0-.28.07-.47.22-.58s.29-.16.43-.16h3.19c1.29 0 2.38.18 3.26.53s1.63.85 2.23 1.49 1.05 1.42 1.35 2.32.46 1.91.46 3.02Zm-1.53.07c0-.88-.11-1.7-.33-2.46s-.57-1.4-1.03-1.95-1.05-.97-1.76-1.28-1.62-.46-2.72-.46h-2.33v12.61h2.34c1.03 0 1.9-.13 2.62-.38s1.31-.65 1.79-1.18.83-1.2 1.07-2.01.36-1.77.36-2.89ZM297.4 139.53c0 .12 0 .22-.01.3s-.02.15-.04.2-.04.09-.07.12-.06.04-.11.04c-.07 0-.15-.02-.25-.05s-.2-.07-.33-.11-.26-.08-.41-.11-.31-.05-.49-.05c-.21 0-.42.04-.62.13s-.42.23-.64.43-.46.46-.7.79-.52.73-.81 1.21v7.17s-.01.09-.04.13-.06.07-.11.09-.12.04-.21.06-.21.02-.35.02c-.13 0-.24 0-.33-.02s-.16-.04-.22-.06-.09-.05-.11-.09-.03-.08-.03-.13v-10.61s0-.09.03-.13.06-.07.11-.1.12-.05.21-.06.19-.02.32-.02.24 0 .33.02.15.03.2.06.08.06.1.1.03.08.03.13v1.68c.3-.45.59-.8.84-1.08s.5-.49.74-.64.46-.26.69-.31.45-.08.69-.08c.1 0 .22 0 .35.02s.28.03.43.06.29.07.41.11.21.08.25.12.08.07.09.09.03.06.04.11.02.1.02.18v.29ZM298.59 148.78c0 .46-.07.77-.22.91s-.41.22-.8.22-.62-.07-.77-.22-.22-.44-.22-.9.07-.77.22-.91.41-.22.8-.22.62.07.77.22.22.44.22.9ZM314.64 145.73c0 .67-.12 1.27-.36 1.8s-.58.98-1.02 1.35-.96.65-1.56.85-1.26.29-1.97.29c-.48 0-.94-.04-1.37-.13s-.81-.2-1.15-.32-.62-.25-.85-.38-.39-.24-.47-.33-.15-.2-.19-.32-.06-.27-.06-.45c0-.13 0-.24.02-.33s.04-.16.06-.21.06-.09.11-.11.09-.03.13-.03c.11 0 .26.07.46.21s.46.29.77.45.7.31 1.14.45.96.21 1.54.21c.48 0 .91-.06 1.31-.19s.74-.31 1.03-.56.51-.54.67-.9.24-.76.24-1.21-.1-.87-.3-1.21-.47-.63-.8-.88-.71-.48-1.13-.69-.85-.41-1.29-.62-.87-.43-1.29-.67-.8-.53-1.13-.85-.6-.71-.8-1.14-.3-.96-.3-1.56.11-1.11.32-1.58.51-.86.89-1.18.84-.57 1.38-.74a5.8 5.8 0 0 1 2.73-.17c.33.06.64.14.93.24s.55.21.79.33.38.22.46.29.12.13.14.16.04.08.05.13.03.12.04.19.01.17.01.28c0 .1 0 .19-.02.28s-.03.15-.05.21-.05.1-.09.13-.08.05-.12.05c-.09 0-.22-.06-.39-.17s-.4-.24-.66-.38-.58-.27-.95-.38-.79-.17-1.25-.17-.86.06-1.21.19-.63.29-.86.51-.4.47-.51.76-.17.59-.17.91c0 .47.1.87.3 1.21s.47.63.81.89.72.49 1.14.7.86.41 1.3.62.88.43 1.3.67.81.52 1.14.84.61.7.81 1.14.3.95.3 1.54ZM322.08 148.97c0 .16-.01.3-.04.4s-.07.18-.13.24-.14.11-.26.16-.24.09-.39.13-.3.06-.47.08-.32.03-.48.03c-.52 0-.97-.07-1.34-.21s-.67-.35-.9-.64-.4-.65-.51-1.08-.16-.95-.16-1.55v-6.6h-1.58c-.11 0-.2-.05-.26-.15s-.09-.24-.09-.44c0-.1 0-.19.02-.26s.04-.14.07-.19.07-.09.11-.11.09-.04.15-.04h1.58v-2.6s0-.09.03-.13.06-.07.11-.1.13-.05.22-.06.2-.02.33-.02c.14 0 .26 0 .35.02s.16.03.21.06.09.06.11.1.04.08.04.13v2.6h2.93c.05 0 .1.01.15.04s.08.06.11.11.05.11.07.19.02.16.02.26c0 .2-.03.34-.1.44s-.15.15-.25.15h-2.93v6.41c0 .8.12 1.42.35 1.84s.65.63 1.26.63c.19 0 .36-.02.51-.06s.29-.08.4-.13.22-.09.3-.13.15-.06.22-.06c.04 0 .07 0 .11.02s.06.04.08.09.04.1.05.16.02.15.02.25ZM332.67 143.75c0 .28-.07.47-.22.58s-.29.16-.43.16h-7.23c0 .66.06 1.25.19 1.78s.34.99.64 1.37.68.67 1.16.87 1.06.3 1.76.3c.49 0 .93-.04 1.32-.13s.73-.18 1.01-.29.52-.2.7-.29.31-.13.39-.13c.05 0 .09.01.13.04s.07.06.09.11.04.12.05.19.02.18.02.29c0 .05 0 .11-.01.16s-.02.1-.03.14-.03.08-.05.12-.05.08-.09.12-.16.11-.36.21-.47.2-.8.29-.71.19-1.14.26-.9.12-1.4.12c-.82 0-1.55-.12-2.18-.37s-1.16-.61-1.59-1.09-.76-1.08-.98-1.79-.33-1.54-.33-2.47.12-1.7.35-2.41.56-1.31.99-1.81.95-.88 1.55-1.14 1.28-.39 2.02-.39c.8 0 1.48.13 2.04.4s1.03.62 1.39 1.07.63.97.8 1.56.25 1.22.25 1.88v.28Zm-1.44-.41c.02-1.12-.23-2-.77-2.64s-1.32-.95-2.36-.95c-.53 0-1 .1-1.4.3s-.74.46-1.02.79-.49.71-.64 1.14-.23.88-.26 1.35h6.45ZM344.54 144.14c0 .91-.1 1.72-.3 2.45s-.49 1.34-.88 1.85-.87.9-1.44 1.18-1.22.42-1.96.42c-.31 0-.61-.03-.88-.1s-.54-.17-.8-.31-.52-.32-.79-.53-.54-.46-.83-.76v5.47s-.01.09-.04.13-.06.07-.11.1-.12.05-.21.06-.21.02-.35.02c-.13 0-.24 0-.33-.02s-.16-.03-.22-.06-.09-.06-.11-.1-.03-.08-.03-.13V139c0-.05 0-.1.03-.14s.05-.07.11-.09.12-.04.2-.05.18-.02.3-.02.21 0 .29.02.14.03.2.05.09.05.12.09.04.09.04.14v1.54c.33-.34.64-.63.94-.87s.59-.45.89-.62.6-.29.91-.36.64-.12 1-.12c.77 0 1.42.15 1.96.44s.98.69 1.32 1.2.59 1.1.74 1.78.23 1.4.23 2.16Zm-1.47.22c0-.59-.05-1.17-.14-1.72s-.25-1.04-.47-1.47-.52-.77-.89-1.03-.84-.39-1.4-.39c-.28 0-.56.04-.83.12s-.54.21-.83.39-.57.41-.88.7-.62.64-.96 1.06v4.62c.59.71 1.15 1.26 1.68 1.63s1.1.57 1.68.57c.54 0 1-.13 1.39-.39s.7-.61.94-1.03.42-.91.53-1.44.17-1.07.17-1.61ZM355.75 149.6s-.01.09-.04.13-.06.07-.11.09-.12.04-.21.06-.2.02-.33.02c-.14 0-.26 0-.35-.02s-.16-.04-.21-.06-.09-.05-.11-.09-.04-.08-.04-.13v-6.29c0-.66-.05-1.19-.15-1.6s-.25-.76-.46-1.05-.46-.52-.78-.68-.69-.24-1.11-.24c-.54 0-1.08.19-1.62.57s-1.11.95-1.7 1.69v7.61s-.01.09-.04.13-.06.07-.11.09-.12.04-.21.06-.21.02-.35.02c-.13 0-.24 0-.33-.02s-.16-.04-.22-.06-.09-.05-.11-.09-.03-.08-.03-.13v-15.8s0-.09.03-.13.06-.07.11-.1.13-.05.22-.06.2-.02.33-.02c.14 0 .26 0 .35.02s.16.03.21.06.09.06.11.1.04.08.04.13v6.62c.58-.64 1.16-1.11 1.73-1.41s1.16-.45 1.73-.45c.7 0 1.28.12 1.76.35s.86.55 1.15.95.5.86.63 1.39.19 1.17.19 1.92v6.42ZM366.45 149.6c0 .08-.03.14-.08.18s-.12.07-.2.09-.19.03-.33.03c-.13 0-.25 0-.34-.03s-.17-.05-.22-.09-.08-.1-.08-.18v-1.18c-.48.52-1 .91-1.58 1.2s-1.17.42-1.79.42c-.55 0-1.05-.07-1.49-.22s-.81-.35-1.12-.62-.54-.6-.7-.98-.25-.81-.25-1.29c0-.59.12-1.1.36-1.53s.59-.79 1.03-1.08.98-.51 1.61-.65 1.32-.22 2.09-.22h1.69v-.91c0-.45-.05-.85-.14-1.2s-.25-.64-.46-.87-.48-.41-.82-.53-.75-.18-1.23-.18-.89.06-1.27.17-.7.24-.98.38-.51.27-.7.38-.31.17-.39.17c-.05 0-.09 0-.13-.02s-.07-.04-.1-.09-.05-.1-.06-.16-.02-.15-.02-.24c0-.16.01-.29.04-.39s.08-.2.18-.29.27-.21.52-.35.54-.26.86-.37.67-.21 1.05-.28.75-.11 1.12-.11c.73 0 1.34.09 1.84.26s.9.43 1.21.76.53.73.66 1.21.2 1.03.2 1.63v7.17Zm-1.4-5h-1.93c-.56 0-1.05.05-1.48.15s-.77.25-1.05.45-.49.43-.63.7-.21.59-.21.94c0 .61.19 1.1.58 1.46s.93.54 1.63.54c.55 0 1.07-.14 1.55-.43s.99-.72 1.53-1.32v-2.5ZM378.32 149.6s-.01.09-.04.13-.06.07-.11.09-.12.04-.21.06-.2.02-.33.02c-.14 0-.26 0-.35-.02s-.16-.04-.21-.06-.09-.05-.11-.09-.04-.08-.04-.13v-6.29c0-.66-.05-1.19-.15-1.6s-.25-.76-.46-1.05-.46-.52-.78-.68-.69-.24-1.11-.24c-.54 0-1.08.19-1.62.57s-1.11.95-1.7 1.69v7.61s-.01.09-.04.13-.06.07-.11.09-.12.04-.21.06-.21.02-.35.02c-.13 0-.24 0-.33-.02s-.16-.04-.22-.06-.09-.05-.11-.09-.03-.08-.03-.13V139s0-.09.03-.13.06-.07.11-.1.12-.05.21-.06.19-.02.32-.02.24 0 .33.02.15.03.2.06.08.06.1.1.03.08.03.13v1.5c.61-.68 1.21-1.17 1.79-1.48s1.17-.46 1.75-.46c.7 0 1.28.12 1.76.35s.86.55 1.15.95.5.86.63 1.39.19 1.17.19 1.92v6.42ZM383.19 135.42c0 .38-.07.63-.2.76s-.38.2-.73.2-.58-.06-.71-.19-.19-.38-.19-.76.07-.63.2-.76.38-.2.73-.2.58.06.71.19.19.38.19.76Zm-.21 14.18s-.01.09-.04.13-.06.07-.11.09-.12.04-.21.06-.21.02-.35.02c-.13 0-.24 0-.33-.02s-.16-.04-.22-.06-.09-.05-.11-.09-.03-.08-.03-.13v-10.61s0-.09.03-.13.06-.07.11-.1.13-.05.22-.06.2-.02.33-.02c.14 0 .26 0 .35.02s.16.03.21.06.09.06.11.1.04.08.04.13v10.61ZM394.93 143.75c0 .28-.07.47-.22.58s-.29.16-.43.16h-7.23c0 .66.06 1.25.19 1.78s.34.99.64 1.37.68.67 1.16.87 1.06.3 1.76.3c.49 0 .93-.04 1.32-.13s.73-.18 1.01-.29.52-.2.7-.29.31-.13.39-.13c.05 0 .09.01.13.04s.07.06.09.11.04.12.05.19.02.18.02.29c0 .05 0 .11-.01.16s-.02.1-.03.14-.03.08-.05.12-.05.08-.09.12-.16.11-.36.21-.47.2-.8.29-.71.19-1.14.26-.9.12-1.4.12c-.82 0-1.55-.12-2.18-.37s-1.16-.61-1.59-1.09-.76-1.08-.98-1.79-.33-1.54-.33-2.47.12-1.7.35-2.41.56-1.31.99-1.81.95-.88 1.55-1.14 1.28-.39 2.02-.39c.8 0 1.48.13 2.04.4s1.03.62 1.39 1.07.63.97.8 1.56.25 1.22.25 1.88v.28Zm-1.44-.41c.02-1.12-.23-2-.77-2.64s-1.32-.95-2.36-.95c-.53 0-1 .1-1.4.3s-.74.46-1.02.79-.49.71-.64 1.14-.23.88-.26 1.35h6.45ZM411.86 149.58c0 .05 0 .1-.02.14s-.05.07-.11.1-.13.05-.22.06-.21.02-.36.02c-.14 0-.28 0-.43-.02s-.26-.05-.33-.1-.14-.11-.2-.18l-6.13-7.78v7.78s-.01.09-.04.13-.06.07-.12.09-.13.04-.22.06-.21.02-.35.02c-.13 0-.25 0-.34-.02s-.17-.04-.22-.06-.09-.05-.12-.09-.04-.08-.04-.13v-14.7s.01-.09.04-.13.06-.07.12-.09.13-.04.22-.06.21-.02.34-.02c.14 0 .26 0 .35.02s.16.04.22.06.09.05.12.09.04.08.04.13v6.89l5.87-6.89c.05-.05.1-.1.15-.14s.12-.07.19-.09.15-.04.25-.05.21-.02.35-.02.25 0 .34.02.15.04.21.06.08.06.1.09.02.08.02.12c0 .09-.02.17-.06.25s-.12.17-.22.28l-5.52 6.32 5.89 7.39c.11.14.18.24.2.29s.04.1.04.14ZM422 149.6s-.01.09-.04.13-.06.07-.11.09-.12.04-.21.06-.2.02-.33.02c-.14 0-.26 0-.35-.02s-.16-.04-.21-.06-.09-.05-.11-.09-.04-.08-.04-.13v-6.29c0-.66-.05-1.19-.15-1.6s-.25-.76-.46-1.05-.46-.52-.78-.68-.69-.24-1.11-.24c-.54 0-1.08.19-1.62.57s-1.11.95-1.7 1.69v7.61s-.01.09-.04.13-.06.07-.11.09-.12.04-.21.06-.21.02-.35.02c-.13 0-.24 0-.33-.02s-.16-.04-.22-.06-.09-.05-.11-.09-.03-.08-.03-.13V139s0-.09.03-.13.06-.07.11-.1.12-.05.21-.06.19-.02.32-.02.24 0 .33.02.15.03.2.06.08.06.1.1.03.08.03.13v1.5c.61-.68 1.21-1.17 1.79-1.48s1.17-.46 1.75-.46c.7 0 1.28.12 1.76.35s.86.55 1.15.95.5.86.63 1.39.19 1.17.19 1.92v6.42ZM432.7 149.6c0 .08-.03.14-.08.18s-.12.07-.2.09-.19.03-.33.03c-.13 0-.25 0-.34-.03s-.17-.05-.22-.09-.08-.1-.08-.18v-1.18c-.48.52-1 .91-1.58 1.2s-1.17.42-1.79.42c-.55 0-1.05-.07-1.49-.22s-.81-.35-1.12-.62-.54-.6-.7-.98-.25-.81-.25-1.29c0-.59.12-1.1.36-1.53s.59-.79 1.03-1.08.98-.51 1.61-.65 1.32-.22 2.09-.22h1.69v-.91c0-.45-.05-.85-.14-1.2s-.25-.64-.46-.87-.48-.41-.82-.53-.75-.18-1.23-.18-.89.06-1.27.17-.7.24-.98.38-.51.27-.7.38-.31.17-.39.17c-.05 0-.09 0-.13-.02s-.07-.04-.1-.09-.05-.1-.06-.16-.02-.15-.02-.24c0-.16.01-.29.04-.39s.08-.2.18-.29.27-.21.52-.35.54-.26.86-.37.67-.21 1.05-.28.75-.11 1.12-.11c.73 0 1.34.09 1.84.26s.9.43 1.21.76.53.73.66 1.21.2 1.03.2 1.63v7.17Zm-1.39-5h-1.93c-.56 0-1.05.05-1.48.15s-.77.25-1.05.45-.49.43-.63.7-.21.59-.21.94c0 .61.19 1.1.58 1.46s.93.54 1.63.54c.55 0 1.07-.14 1.55-.43s.99-.72 1.53-1.32v-2.5ZM445.23 144.14c0 .91-.1 1.72-.3 2.45s-.49 1.34-.88 1.85-.87.9-1.44 1.18-1.22.42-1.96.42c-.31 0-.61-.03-.88-.1s-.54-.17-.8-.31-.52-.32-.79-.53-.54-.46-.83-.76v5.47s-.01.09-.04.13-.06.07-.11.1-.12.05-.21.06-.21.02-.35.02c-.13 0-.24 0-.33-.02s-.16-.03-.22-.06-.09-.06-.11-.1-.03-.08-.03-.13V139c0-.05 0-.1.03-.14s.05-.07.11-.09.12-.04.2-.05.18-.02.3-.02.21 0 .29.02.14.03.2.05.09.05.12.09.04.09.04.14v1.54c.33-.34.64-.63.94-.87s.59-.45.89-.62.6-.29.91-.36.64-.12 1-.12c.77 0 1.42.15 1.96.44s.98.69 1.32 1.2.59 1.1.74 1.78.23 1.4.23 2.16Zm-1.47.22c0-.59-.05-1.17-.14-1.72s-.25-1.04-.47-1.47-.52-.77-.89-1.03-.84-.39-1.4-.39c-.28 0-.56.04-.83.12s-.54.21-.83.39-.57.41-.88.7-.62.64-.96 1.06v4.62c.59.71 1.15 1.26 1.68 1.63s1.1.57 1.68.57c.54 0 1-.13 1.39-.39s.7-.61.94-1.03.42-.91.53-1.44.17-1.07.17-1.61ZM457.1 144.14c0 .91-.1 1.72-.3 2.45s-.49 1.34-.88 1.85-.87.9-1.44 1.18-1.22.42-1.96.42c-.31 0-.61-.03-.88-.1s-.54-.17-.8-.31-.52-.32-.79-.53-.54-.46-.83-.76v5.47s-.01.09-.04.13-.06.07-.11.1-.12.05-.21.06-.21.02-.35.02c-.13 0-.24 0-.33-.02s-.16-.03-.22-.06-.09-.06-.11-.1-.03-.08-.03-.13V139c0-.05 0-.1.03-.14s.05-.07.11-.09.12-.04.2-.05.18-.02.3-.02.21 0 .29.02.14.03.2.05.09.05.12.09.04.09.04.14v1.54c.33-.34.64-.63.94-.87s.59-.45.89-.62.6-.29.91-.36.64-.12 1-.12c.77 0 1.42.15 1.96.44s.98.69 1.32 1.2.59 1.1.74 1.78.23 1.4.23 2.16Zm-1.47.22c0-.59-.05-1.17-.14-1.72s-.25-1.04-.47-1.47-.52-.77-.89-1.03-.84-.39-1.4-.39c-.28 0-.56.04-.83.12s-.54.21-.83.39-.57.41-.88.7-.62.64-.96 1.06v4.62c.59.71 1.15 1.26 1.68 1.63s1.1.57 1.68.57c.54 0 1-.13 1.39-.39s.7-.61.94-1.03.42-.91.53-1.44.17-1.07.17-1.61ZM475.93 142.03c0 1.27-.16 2.4-.48 3.37s-.79 1.79-1.42 2.44-1.4 1.15-2.31 1.49-2.01.5-3.29.5h-2.99c-.14 0-.29-.05-.43-.16s-.22-.3-.22-.58V135.4c0-.28.07-.47.22-.58s.29-.16.43-.16h3.19c1.29 0 2.38.18 3.26.53s1.63.85 2.23 1.49 1.05 1.42 1.35 2.32.46 1.91.46 3.02Zm-1.53.07c0-.88-.11-1.7-.33-2.46s-.57-1.4-1.03-1.95-1.05-.97-1.76-1.28-1.62-.46-2.72-.46h-2.33v12.61h2.34c1.03 0 1.9-.13 2.62-.38s1.31-.65 1.79-1.18.83-1.2 1.07-2.01.36-1.77.36-2.89ZM487.05 149.6s0 .09-.03.13-.06.07-.11.09-.12.04-.21.06-.19.02-.32.02c-.14 0-.25 0-.34-.02s-.15-.04-.2-.06-.08-.05-.1-.09-.03-.08-.03-.13v-1.5c-.61.68-1.21 1.17-1.79 1.48s-1.16.46-1.74.46c-.7 0-1.28-.12-1.76-.35s-.86-.55-1.15-.96-.5-.87-.63-1.4-.19-1.17-.19-1.92V139s0-.09.03-.13.06-.07.11-.1.13-.05.22-.06.2-.02.33-.02c.14 0 .26 0 .35.02s.16.03.21.06.09.06.11.1.04.08.04.13v6.28c0 .66.05 1.19.15 1.61s.25.77.46 1.06.46.52.78.68.69.24 1.11.24c.54 0 1.08-.19 1.61-.57s1.1-.95 1.71-1.69V139s0-.09.03-.13.06-.07.11-.1.13-.05.22-.06.21-.02.35-.02c.13 0 .24 0 .33.02s.16.03.21.06.09.06.11.1.04.08.04.13v10.61ZM505.48 149.6s-.01.09-.04.13-.06.07-.11.09-.12.04-.21.06-.2.02-.33.02c-.14 0-.26 0-.35-.02s-.16-.04-.22-.06-.09-.05-.11-.09-.03-.08-.03-.13v-6.53c0-.5-.04-.96-.13-1.37s-.23-.76-.42-1.05-.43-.52-.73-.68-.64-.24-1.04-.24c-.49 0-.99.19-1.49.57s-1.06.95-1.66 1.69v7.61s-.01.09-.04.13-.06.07-.11.09-.12.04-.21.06-.2.02-.33.02-.24 0-.33-.02-.16-.04-.22-.06-.09-.05-.11-.09-.03-.08-.03-.13v-6.53c0-.5-.05-.96-.14-1.37s-.24-.76-.43-1.05-.43-.52-.73-.68-.64-.24-1.04-.24c-.49 0-.99.19-1.49.57s-1.05.95-1.65 1.69v7.61s-.01.09-.04.13-.06.07-.11.09-.12.04-.21.06-.21.02-.35.02c-.13 0-.24 0-.33-.02s-.16-.04-.22-.06-.09-.05-.11-.09-.03-.08-.03-.13v-10.61s0-.09.03-.13.06-.07.11-.1.12-.05.21-.06.19-.02.32-.02.24 0 .33.02.15.03.2.06.08.06.1.1.03.08.03.13v1.5c.61-.68 1.19-1.17 1.73-1.48s1.09-.46 1.63-.46c.45 0 .84.05 1.19.16s.65.25.92.45.49.42.68.69.34.56.46.88c.37-.41.71-.75 1.04-1.03s.63-.5.93-.67.58-.29.85-.36.54-.11.81-.11c.66 0 1.22.12 1.68.35s.82.55 1.1.95.48.86.6 1.39.18 1.09.18 1.69v6.66ZM518.01 144.16c0 .91-.1 1.72-.29 2.44s-.49 1.34-.87 1.85-.86.9-1.43 1.17-1.22.41-1.95.41c-.33 0-.63-.03-.91-.1s-.55-.17-.81-.32-.54-.34-.81-.56-.58-.5-.9-.82v1.37a.23.23 0 0 1-.16.23c-.06.02-.12.04-.2.05s-.18.02-.29.02-.22 0-.3-.02-.15-.03-.2-.05-.09-.05-.11-.09-.03-.09-.03-.14v-15.8s0-.09.03-.13.06-.07.11-.1.13-.05.22-.06.2-.02.33-.02c.14 0 .26 0 .35.02s.16.03.21.06.09.06.11.1.04.08.04.13v6.62c.34-.35.66-.65.96-.88s.6-.43.89-.57.58-.25.86-.31.58-.09.88-.09c.77 0 1.42.15 1.96.45s.98.7 1.32 1.21.59 1.1.74 1.78.23 1.4.23 2.17Zm-1.47.23c0-.59-.05-1.17-.14-1.72s-.25-1.05-.48-1.48-.53-.78-.9-1.04-.84-.39-1.41-.39c-.27 0-.54.04-.81.12s-.54.21-.83.39-.57.41-.87.7-.62.64-.96 1.06v4.62c.59.71 1.15 1.26 1.69 1.63s1.11.57 1.69.57c.54 0 1-.13 1.38-.39s.7-.6.94-1.03.42-.9.53-1.43.16-1.07.16-1.61ZM528.05 149.6c0 .08-.03.14-.08.18s-.12.07-.2.09-.19.03-.33.03c-.13 0-.25 0-.34-.03s-.17-.05-.22-.09-.08-.1-.08-.18v-1.18c-.48.52-1 .91-1.58 1.2s-1.17.42-1.79.42c-.55 0-1.05-.07-1.49-.22s-.81-.35-1.12-.62-.54-.6-.7-.98-.25-.81-.25-1.29c0-.59.12-1.1.36-1.53s.59-.79 1.03-1.08.98-.51 1.61-.65 1.32-.22 2.09-.22h1.69v-.91c0-.45-.05-.85-.14-1.2s-.25-.64-.46-.87-.48-.41-.82-.53-.75-.18-1.23-.18-.89.06-1.27.17-.7.24-.98.38-.51.27-.7.38-.31.17-.39.17c-.05 0-.09 0-.13-.02s-.07-.04-.1-.09-.05-.1-.06-.16-.02-.15-.02-.24c0-.16.01-.29.04-.39s.08-.2.18-.29.27-.21.52-.35.54-.26.86-.37.67-.21 1.05-.28.75-.11 1.12-.11c.73 0 1.34.09 1.84.26s.9.43 1.21.76.53.73.66 1.21.2 1.03.2 1.63v7.17Zm-1.39-5h-1.93c-.56 0-1.05.05-1.48.15s-.77.25-1.05.45-.49.43-.63.7-.21.59-.21.94c0 .61.19 1.1.58 1.46s.93.54 1.63.54c.55 0 1.07-.14 1.55-.43s.99-.72 1.53-1.32v-2.5ZM538.72 148.03c0 .09 0 .18-.01.25s-.02.14-.04.19l-.06.15c-.02.05-.09.12-.19.22s-.27.23-.51.39-.51.29-.8.41-.62.21-.96.29-.7.11-1.07.11c-.73 0-1.38-.12-1.95-.37s-1.04-.61-1.42-1.09-.67-1.07-.87-1.77-.3-1.51-.3-2.42c0-1.03.12-1.91.37-2.65s.58-1.34 1.01-1.8.93-.81 1.51-1.04 1.19-.33 1.85-.33c.35 0 .69.03 1.01.1s.62.15.88.26.51.23.72.38.37.26.46.36.16.17.2.22.06.11.08.17.03.13.04.21.01.16.01.26c0 .23-.03.38-.1.47s-.14.13-.22.13c-.11 0-.24-.07-.4-.21s-.37-.29-.62-.46-.55-.32-.91-.46-.78-.21-1.27-.21c-1.02 0-1.8.39-2.35 1.17s-.83 1.91-.83 3.39c0 .74.07 1.39.22 1.95s.36 1.02.64 1.39.62.65 1.01.83.85.28 1.35.28c.47 0 .88-.07 1.24-.22s.67-.31.94-.49.49-.34.66-.49.31-.22.39-.22c.05 0 .09.01.12.04s.06.07.09.13.04.13.05.21.02.18.02.29ZM549.53 149.6s-.01.09-.04.13-.06.07-.11.09-.12.04-.21.06-.2.02-.33.02c-.14 0-.26 0-.35-.02s-.16-.04-.21-.06-.09-.05-.11-.09-.04-.08-.04-.13v-6.29c0-.66-.05-1.19-.15-1.6s-.25-.76-.46-1.05-.46-.52-.78-.68-.69-.24-1.11-.24c-.54 0-1.08.19-1.62.57s-1.11.95-1.7 1.69v7.61s-.01.09-.04.13-.06.07-.11.09-.12.04-.21.06-.21.02-.35.02c-.13 0-.24 0-.33-.02s-.16-.04-.22-.06-.09-.05-.11-.09-.03-.08-.03-.13v-15.8s0-.09.03-.13.06-.07.11-.1.13-.05.22-.06.2-.02.33-.02c.14 0 .26 0 .35.02s.16.03.21.06.09.06.11.1.04.08.04.13v6.62c.58-.64 1.16-1.11 1.73-1.41s1.16-.45 1.73-.45c.7 0 1.28.12 1.76.35s.86.55 1.15.95.5.86.63 1.39.19 1.17.19 1.92v6.42Z"/>
    <g fill="#fff">
        <path d="M288 40.91c0 .12 0 .22-.03.31-.02.09-.05.17-.08.23a.376.376 0 0 1-.33.19H277.1c-.17 0-.32-.06-.44-.17-.12-.11-.18-.3-.18-.57v-.45c0-.08 0-.16.02-.24.01-.08.04-.16.08-.25s.09-.2.16-.31c.07-.12.15-.25.25-.41l8.87-13.79h-8.76c-.07 0-.14-.02-.19-.05a.466.466 0 0 1-.14-.14.618.618 0 0 1-.08-.23c-.02-.09-.03-.2-.03-.31 0-.13 0-.24.03-.33.02-.1.05-.18.08-.24a.376.376 0 0 1 .33-.19h9.9c.17 0 .32.06.44.17.12.11.18.3.18.57v.45c0 .09 0 .18-.02.26s-.04.17-.08.26-.09.19-.16.31c-.07.11-.15.24-.25.39l-8.87 13.79h9.32c.15 0 .25.06.33.18s.11.31.11.57ZM302.91 41.08c.05.14.08.25.08.33 0 .09-.04.15-.1.2s-.15.08-.27.09-.28.02-.47.02-.34 0-.46-.02-.2-.03-.27-.06-.11-.06-.14-.11c-.03-.05-.06-.1-.09-.16l-1.7-4.72h-7.77l-1.63 4.69c-.02.06-.05.12-.08.16-.04.05-.09.08-.15.12s-.15.06-.27.08c-.11.02-.26.03-.43.03-.19 0-.35 0-.48-.03-.13-.02-.22-.05-.28-.1s-.09-.11-.1-.19.02-.19.08-.33l6.19-16.83c.03-.07.07-.13.12-.18.05-.05.12-.09.21-.12s.19-.05.31-.06.26-.02.42-.02c.16 0 .31 0 .43.02s.23.03.31.06.16.07.21.12c.05.05.09.11.12.18l6.19 16.83Zm-7.34-15.34h-.01l-3.34 9.52h6.77l-3.42-9.52ZM317.6 41.37c0 .05-.01.1-.04.15-.03.05-.07.08-.14.11-.06.03-.15.05-.26.07-.11.02-.24.03-.4.03-.16 0-.3 0-.4-.03-.1-.02-.19-.04-.25-.07a.314.314 0 0 1-.14-.11.282.282 0 0 1-.04-.15v-8.24h-8.83v8.24c0 .05-.01.1-.04.15-.03.05-.07.08-.14.11-.06.03-.15.05-.25.07-.11.02-.24.03-.4.03-.16 0-.29 0-.4-.03-.11-.02-.2-.04-.26-.07a.314.314 0 0 1-.14-.11.282.282 0 0 1-.04-.15V24.23c0-.05.01-.1.04-.15.03-.05.07-.08.14-.11.06-.03.15-.05.26-.07.11-.02.24-.03.4-.03.16 0 .3 0 .4.03.1.02.19.04.25.07.06.03.11.06.14.11.03.05.04.1.04.15v7.41h8.83v-7.41c0-.05.01-.1.04-.15.03-.05.07-.08.14-.11.06-.03.15-.05.25-.07.11-.02.24-.03.4-.03.15 0 .29 0 .4.03.11.02.2.04.26.07.06.03.11.06.14.11.03.05.04.1.04.15v17.14ZM334.76 40.84c0 .16-.03.3-.08.41s-.11.2-.19.27-.16.12-.26.14-.18.04-.27.04h-.34c-.18 0-.35-.02-.5-.07s-.3-.12-.44-.24c-.14-.11-.28-.27-.42-.46s-.3-.44-.47-.74l-6.23-11.05c-.31-.54-.62-1.09-.94-1.66-.31-.57-.61-1.12-.9-1.66h-.01c0 .67.01 1.35.01 2.04v13.5c0 .05-.01.1-.04.15-.03.05-.07.08-.14.11s-.15.05-.25.07c-.1.02-.24.03-.4.03-.16 0-.29 0-.4-.03-.11-.02-.2-.04-.26-.07s-.11-.06-.14-.11a.282.282 0 0 1-.04-.15V24.8c0-.33.09-.55.26-.68s.34-.18.51-.18h.68c.22 0 .4.02.55.05.15.04.28.1.4.18.12.09.23.21.35.37.11.16.24.36.38.61l4.77 8.46c.3.53.59 1.04.85 1.52.27.49.53.97.79 1.44.25.47.51.93.76 1.39l.75 1.38h.01c0-.77-.01-1.56-.01-2.39V24.26c0-.05.01-.1.04-.15a.34.34 0 0 1 .14-.12c.06-.03.15-.05.25-.07s.24-.02.4-.02c.15 0 .27 0 .38.02s.2.04.26.07c.06.03.11.07.14.12.03.05.05.1.05.15v16.56ZM351.8 41.08c.05.14.08.25.08.33 0 .09-.04.15-.1.2s-.15.08-.27.09-.28.02-.47.02-.34 0-.46-.02-.2-.03-.27-.06-.11-.06-.14-.11c-.03-.05-.06-.1-.09-.16l-1.7-4.72h-7.77l-1.63 4.69c-.02.06-.05.12-.08.16-.04.05-.09.08-.15.12s-.15.06-.27.08c-.11.02-.26.03-.43.03-.19 0-.35 0-.48-.03-.13-.02-.22-.05-.28-.1s-.09-.11-.1-.19.02-.19.08-.33l6.19-16.83c.03-.07.07-.13.12-.18.05-.05.12-.09.21-.12s.19-.05.31-.06.26-.02.42-.02c.16 0 .31 0 .43.02s.23.03.31.06.16.07.21.12c.05.05.09.11.12.18l6.19 16.83Zm-7.34-15.34h-.01l-3.34 9.52h6.77l-3.42-9.52ZM365.38 41.34c0 .06-.01.12-.03.16-.02.05-.07.08-.13.12s-.15.06-.27.08c-.11.02-.26.03-.43.03-.16 0-.29 0-.39-.02s-.19-.04-.27-.08-.13-.1-.18-.16-.09-.16-.12-.27l-1.65-4.29c-.19-.48-.4-.94-.62-1.37-.22-.43-.48-.8-.79-1.11s-.68-.56-1.12-.75c-.44-.18-.96-.27-1.57-.27h-1.83v7.97c0 .05-.01.1-.04.15-.03.05-.07.08-.14.11s-.15.05-.25.07c-.1.02-.24.03-.4.03-.16 0-.29 0-.4-.03-.11-.02-.2-.04-.26-.07s-.11-.06-.14-.11a.282.282 0 0 1-.04-.15V24.82c0-.33.09-.55.26-.68s.34-.18.51-.18h3.32c.44 0 .8.01 1.09.03.29.02.55.05.79.09.67.12 1.26.31 1.76.57a3.935 3.935 0 0 1 1.97 2.29c.16.49.24 1.01.24 1.58s-.08 1.11-.25 1.57c-.16.46-.4.87-.7 1.22-.3.35-.66.65-1.08.91-.42.26-.88.47-1.38.64.3.14.57.31.81.51.24.2.46.44.67.72.21.28.4.61.58.98s.36.78.55 1.24l1.65 4.13c.12.32.19.54.23.66.03.12.05.21.05.26Zm-2.94-12.64c0-.76-.17-1.4-.51-1.92-.34-.52-.9-.9-1.7-1.13a6.6 6.6 0 0 0-.86-.16c-.31-.03-.72-.05-1.22-.05h-2.19v6.49h2.54c.68 0 1.27-.08 1.76-.25.49-.17.9-.4 1.22-.69.32-.29.56-.63.71-1.03.15-.39.23-.82.23-1.27ZM378.3 40.91c0 .12 0 .22-.03.31-.02.09-.05.17-.08.23a.376.376 0 0 1-.33.19H367.4c-.17 0-.32-.06-.44-.17-.12-.11-.18-.3-.18-.57v-.45c0-.08 0-.16.02-.24.01-.08.04-.16.08-.25s.09-.2.16-.31c.07-.12.15-.25.25-.41l8.87-13.79h-8.76c-.07 0-.14-.02-.19-.05a.466.466 0 0 1-.14-.14.618.618 0 0 1-.08-.23c-.02-.09-.03-.2-.03-.31 0-.13 0-.24.03-.33s.05-.18.08-.24a.376.376 0 0 1 .33-.19h9.9c.17 0 .32.06.44.17.12.11.18.3.18.57v.45c0 .09 0 .18-.02.26s-.04.17-.08.26-.09.19-.16.31c-.07.11-.15.24-.25.39l-8.87 13.79h9.32c.15 0 .25.06.33.18s.11.31.11.57ZM391.5 24.72c0 .12 0 .22-.03.31-.02.09-.05.17-.08.23-.04.06-.08.1-.14.14-.05.03-.11.05-.18.05h-5.28v15.93c0 .05-.01.1-.04.15-.03.05-.07.08-.14.11s-.15.05-.26.07c-.11.02-.24.03-.4.03s-.29 0-.4-.03c-.11-.02-.2-.04-.26-.07s-.11-.06-.14-.11a.282.282 0 0 1-.04-.15V25.45h-5.28c-.07 0-.13-.02-.18-.05a.442.442 0 0 1-.13-.14.618.618 0 0 1-.08-.23c-.02-.09-.03-.2-.03-.31 0-.13 0-.24.03-.33s.05-.18.08-.24c.04-.06.08-.11.13-.14.05-.03.11-.05.18-.05h12.22c.06 0 .12.02.18.05.05.03.1.08.14.14.04.06.06.14.08.24s.03.21.03.33ZM403.81 29.02c0 .82-.14 1.57-.42 2.26s-.68 1.27-1.2 1.76-1.15.88-1.9 1.15-1.65.41-2.71.41h-2.3v6.77c0 .05-.01.1-.04.15-.03.05-.07.08-.14.11s-.15.05-.25.07c-.1.02-.24.03-.4.03-.16 0-.29 0-.4-.03-.11-.02-.2-.04-.26-.07s-.11-.06-.14-.11a.282.282 0 0 1-.04-.15V24.81c0-.33.09-.55.26-.68s.34-.18.51-.18h3.6c.36 0 .7.02 1.04.05.34.03.73.1 1.18.21.45.1.91.3 1.38.59s.87.64 1.2 1.05c.33.42.58.89.76 1.42s.27 1.12.27 1.76Zm-1.77.16c0-.77-.15-1.42-.45-1.95s-.67-.93-1.1-1.19-.88-.42-1.35-.49-.91-.1-1.33-.1h-2.52v7.68h2.41c.77 0 1.42-.1 1.94-.29.52-.2.96-.47 1.31-.81.36-.35.63-.76.81-1.25.19-.49.28-1.02.28-1.59ZM418.21 41.34c0 .06-.01.12-.03.16-.02.05-.07.08-.13.12s-.15.06-.27.08c-.11.02-.26.03-.43.03-.16 0-.29 0-.39-.02s-.19-.04-.27-.08-.13-.1-.18-.16-.09-.16-.12-.27l-1.65-4.29c-.19-.48-.4-.94-.62-1.37-.22-.43-.48-.8-.79-1.11s-.68-.56-1.12-.75c-.44-.18-.96-.27-1.57-.27h-1.83v7.97c0 .05-.01.1-.04.15-.03.05-.07.08-.14.11s-.15.05-.25.07c-.1.02-.24.03-.4.03-.16 0-.29 0-.4-.03-.11-.02-.2-.04-.26-.07s-.11-.06-.14-.11a.282.282 0 0 1-.04-.15V24.82c0-.33.09-.55.26-.68s.34-.18.51-.18h3.32c.44 0 .8.01 1.09.03.29.02.55.05.79.09.67.12 1.26.31 1.76.57a3.935 3.935 0 0 1 1.97 2.29c.16.49.24 1.01.24 1.58s-.08 1.11-.25 1.57c-.16.46-.4.87-.7 1.22-.3.35-.66.65-1.08.91-.42.26-.88.47-1.38.64.3.14.57.31.81.51.24.2.46.44.67.72.21.28.4.61.58.98s.36.78.55 1.24l1.65 4.13c.12.32.19.54.23.66.03.12.05.21.05.26Zm-2.93-12.64c0-.76-.17-1.4-.51-1.92-.34-.52-.9-.9-1.7-1.13a6.6 6.6 0 0 0-.86-.16c-.31-.03-.72-.05-1.22-.05h-2.19v6.49h2.54c.68 0 1.27-.08 1.76-.25.49-.17.9-.4 1.22-.69.32-.29.56-.63.71-1.03.15-.39.23-.82.23-1.27ZM433.91 41.08c.05.14.08.25.08.33 0 .09-.04.15-.1.2s-.15.08-.27.09-.28.02-.47.02-.34 0-.46-.02-.2-.03-.27-.06-.11-.06-.14-.11c-.03-.05-.06-.1-.09-.16l-1.7-4.72h-7.77l-1.63 4.69c-.02.06-.05.12-.08.16-.04.05-.09.08-.15.12s-.15.06-.27.08c-.11.02-.26.03-.43.03-.19 0-.35 0-.48-.03-.13-.02-.22-.05-.28-.1s-.09-.11-.1-.19.02-.19.08-.33l6.19-16.83c.03-.07.07-.13.12-.18.05-.05.12-.09.21-.12s.19-.05.31-.06.26-.02.42-.02c.16 0 .31 0 .43.02s.23.03.31.06.16.07.21.12c.05.05.09.11.12.18l6.19 16.83Zm-7.34-15.34h-.01l-3.34 9.52h6.77l-3.42-9.52ZM446.96 41.08c.08.13.13.23.14.31s-.02.15-.08.2-.16.08-.29.1c-.13.02-.3.03-.51.03s-.37 0-.49-.02-.21-.03-.29-.06-.13-.06-.17-.11c-.04-.05-.08-.1-.12-.16l-4.27-7.38-4.35 7.38c-.05.06-.09.12-.14.16-.05.05-.1.08-.18.11s-.17.05-.29.06-.27.02-.46.02c-.21 0-.38 0-.51-.03-.13-.02-.22-.05-.27-.1s-.08-.12-.07-.2.05-.19.14-.31l5.14-8.37-4.96-8.2c-.08-.13-.13-.23-.14-.31s0-.15.06-.2c.05-.05.14-.08.27-.1.12-.02.29-.03.5-.03s.36 0 .49.02.22.03.3.06.14.06.18.11l.13.16 4.2 7.03 4.18-7.03c.04-.06.07-.12.11-.16.04-.05.09-.08.15-.11s.15-.05.26-.06.26-.02.45-.02.35 0 .49.03c.13.02.23.05.29.1.06.05.09.12.09.2s-.04.19-.12.31l-4.96 8.13 5.11 8.44ZM451.43 41.37c0 .05-.01.1-.04.15-.03.05-.07.08-.14.11s-.15.05-.25.07c-.1.02-.24.03-.4.03-.16 0-.29 0-.4-.03-.11-.02-.2-.04-.26-.07s-.11-.06-.14-.11a.282.282 0 0 1-.04-.15V24.23c0-.05.02-.1.05-.15.03-.05.08-.08.15-.11s.16-.05.26-.07c.1-.02.23-.03.38-.03.16 0 .3 0 .4.03.1.02.19.04.25.07s.11.06.14.11c.03.05.04.1.04.15v17.14ZM464.85 36.86c0 .78-.14 1.49-.42 2.11-.28.62-.68 1.15-1.19 1.58-.51.43-1.12.76-1.82.99s-1.47.34-2.3.34c-.57 0-1.1-.05-1.6-.16s-.95-.23-1.34-.38c-.39-.15-.72-.29-.99-.44s-.45-.28-.55-.38c-.1-.1-.17-.23-.22-.37a1.62 1.62 0 0 1-.07-.53c0-.15 0-.28.03-.38.02-.1.04-.18.08-.25.03-.06.07-.11.12-.13.05-.02.1-.03.16-.03.13 0 .31.08.54.24a8.103 8.103 0 0 0 2.23 1.04c.51.16 1.11.24 1.8.24.56 0 1.07-.08 1.53-.23s.87-.37 1.2-.65c.34-.28.6-.63.79-1.05.19-.41.28-.89.28-1.42s-.12-1.02-.36-1.41a3.67 3.67 0 0 0-.94-1.03c-.39-.3-.83-.56-1.32-.81-.49-.24-1-.48-1.51-.72s-1.02-.5-1.51-.79c-.49-.28-.93-.61-1.32-.99s-.7-.82-.94-1.33c-.24-.51-.36-1.12-.36-1.82s.12-1.3.37-1.84.59-1 1.04-1.38c.45-.38.98-.67 1.61-.87a6.7 6.7 0 0 1 3.19-.19c.38.07.75.17 1.09.28.34.11.65.24.92.38s.45.26.53.34c.09.09.14.15.16.19s.04.09.06.16c.02.06.03.14.04.23 0 .09.01.19.01.32 0 .12 0 .23-.02.32s-.03.18-.06.25-.06.12-.1.16c-.04.04-.09.05-.14.05-.1 0-.25-.07-.46-.2-.21-.13-.46-.28-.77-.44s-.68-.31-1.11-.44c-.43-.13-.92-.2-1.46-.2s-1.01.07-1.41.22c-.4.15-.73.34-1 .59-.26.25-.46.54-.59.88-.13.34-.2.69-.2 1.07 0 .55.12 1.02.36 1.41.24.39.55.74.94 1.04s.84.57 1.33.81c.5.24 1 .48 1.52.72.51.24 1.02.5 1.52.78s.94.61 1.33.98c.39.38.71.82.94 1.33s.36 1.11.36 1.8ZM277.3 67.13c0-.49.06-.97.19-1.42.13-.46.34-.9.63-1.33.29-.43.68-.86 1.16-1.27.48-.41 1.08-.84 1.78-1.26-.38-.53-.71-1-.98-1.42-.27-.42-.49-.81-.66-1.16-.17-.36-.29-.69-.36-1.01a4.508 4.508 0 0 1 .15-2.5c.17-.49.45-.93.84-1.31.39-.38.89-.69 1.52-.92.62-.23 1.38-.35 2.28-.35.71 0 1.33.09 1.87.26.53.17.98.42 1.33.72.36.31.62.68.81 1.11.18.43.27.91.27 1.43s-.08 1.01-.25 1.46c-.17.44-.44.87-.83 1.29-.38.42-.88.84-1.5 1.27-.62.43-1.37.89-2.26 1.38.34.42.71.86 1.11 1.31.4.46.82.91 1.26 1.37.44.46.88.92 1.34 1.37s.91.88 1.37 1.29c.22-.28.42-.6.59-.96s.32-.73.45-1.13.23-.8.29-1.22c.07-.42.1-.84.1-1.27v-.53c0-.08.01-.15.03-.21s.06-.1.12-.14c.05-.04.13-.06.24-.08s.24-.02.4-.02h.36c.1 0 .19.02.26.05s.12.07.16.14c.04.06.05.16.05.27v.27c0 .55-.05 1.08-.14 1.61a9.878 9.878 0 0 1-1.02 2.93c-.25.45-.52.86-.82 1.24.46.37.87.69 1.21.94.34.25.64.45.88.61.25.16.45.26.6.33.16.06.28.1.38.1.09 0 .18 0 .25-.01.08 0 .14 0 .19.02.05.02.09.07.12.15.03.08.04.2.04.38v.42c0 .11-.02.19-.03.25s-.05.1-.1.14c-.05.04-.13.07-.25.1s-.3.04-.54.04c-.17 0-.37-.03-.59-.1s-.48-.19-.77-.36c-.3-.17-.64-.41-1.04-.7s-.86-.67-1.39-1.12c-.36.33-.75.63-1.16.91-.41.28-.84.52-1.31.72s-.96.36-1.48.48-1.09.17-1.7.17c-.57 0-1.09-.05-1.58-.15-.49-.1-.93-.25-1.34-.44-.41-.19-.77-.43-1.08-.7-.31-.28-.58-.59-.79-.94-.21-.35-.38-.73-.49-1.15-.11-.42-.17-.87-.17-1.34Zm1.75-.26c0 .52.08.99.25 1.42.17.43.42.8.75 1.11.33.31.75.56 1.24.73.5.17 1.07.26 1.72.26.44 0 .85-.05 1.25-.14.4-.09.78-.22 1.14-.38.36-.16.71-.35 1.03-.57s.62-.46.89-.71c-.51-.45-1.01-.91-1.51-1.39s-.98-.96-1.44-1.45c-.46-.49-.91-.97-1.34-1.46-.43-.48-.83-.96-1.19-1.42-.54.34-.98.67-1.34.99-.36.32-.64.65-.85.98-.21.33-.37.66-.46.98-.09.33-.14.67-.14 1.03Zm1.62-9.77c0 .27.04.55.11.83.07.28.18.58.33.89.15.31.34.65.57 1 .23.36.5.76.81 1.2.74-.42 1.36-.8 1.86-1.15.5-.35.9-.68 1.21-1.01s.53-.65.66-.98c.14-.32.21-.67.21-1.05 0-.29-.05-.57-.16-.84-.1-.27-.27-.51-.5-.72-.23-.21-.52-.38-.88-.51s-.78-.19-1.29-.19c-.54 0-.99.07-1.36.21-.37.14-.67.33-.91.57s-.41.51-.51.81c-.1.3-.16.61-.16.93ZM312.67 71.34c0 .06 0 .12-.03.16-.02.05-.06.08-.12.12-.06.03-.15.06-.26.08-.11.02-.25.03-.42.03s-.33 0-.5-.03a.898.898 0 0 1-.39-.12.93.93 0 0 1-.23-.21l-7.15-9.08v9.08c0 .05-.01.1-.04.15-.03.05-.07.08-.14.11-.06.03-.15.05-.25.07-.11.02-.24.03-.4.03-.16 0-.29 0-.4-.03-.11-.02-.2-.04-.26-.07a.314.314 0 0 1-.14-.11.282.282 0 0 1-.04-.15V54.23c0-.05.01-.1.04-.15.03-.05.07-.08.14-.11.06-.03.15-.05.26-.07.11-.02.24-.03.4-.03.16 0 .3 0 .4.03.1.02.19.04.25.07.06.03.11.06.14.11.03.05.04.1.04.15v8.04l6.85-8.04a.69.69 0 0 1 .18-.16c.06-.05.14-.08.22-.11s.18-.05.29-.06.25-.02.41-.02.3 0 .4.03c.1.02.18.04.24.08.06.03.1.07.12.11.02.04.03.09.03.14 0 .1-.03.2-.08.29-.05.09-.13.2-.25.33l-6.44 7.37 6.88 8.63c.13.16.21.28.23.34.03.06.04.12.04.16ZM316.99 71.37c0 .05-.01.1-.04.15-.03.05-.07.08-.14.11s-.15.05-.25.07c-.1.02-.24.03-.4.03-.16 0-.29 0-.4-.03-.11-.02-.2-.04-.26-.07s-.11-.06-.14-.11a.282.282 0 0 1-.04-.15V54.23c0-.05.02-.1.05-.15.03-.05.08-.08.15-.11s.16-.05.26-.07c.1-.02.23-.03.38-.03.16 0 .3 0 .4.03.1.02.19.04.25.07s.11.06.14.11c.03.05.04.1.04.15v17.14ZM330.95 70.91c0 .12 0 .22-.03.31a.69.69 0 0 1-.09.23c-.04.06-.09.11-.14.14-.05.03-.11.05-.18.05h-8.29c-.16 0-.33-.06-.51-.18s-.26-.35-.26-.68V54.81c0-.33.09-.55.26-.68s.34-.18.51-.18h8.16c.06 0 .12.02.18.05.05.03.1.08.14.14.04.06.06.14.08.24s.03.21.03.33c0 .12 0 .22-.03.31-.02.09-.05.17-.08.23-.04.06-.08.1-.14.14-.05.03-.11.05-.18.05h-7.26v6.22h6.26c.07 0 .14.02.19.05.05.03.1.08.14.14.04.06.06.14.08.23s.03.21.03.33c0 .12 0 .22-.03.31-.02.09-.05.16-.08.21s-.08.1-.14.12-.12.04-.19.04h-6.26v7.05h7.38c.06 0 .12.02.18.05.05.03.1.08.14.14.04.06.07.14.09.23s.03.21.03.33ZM343.4 54.72c0 .12 0 .22-.03.31a.69.69 0 0 1-.09.23c-.04.06-.09.1-.14.14-.05.03-.11.05-.18.05h-6.85v6.7h6.49c.06 0 .12.01.18.03.05.02.1.06.14.12s.07.13.09.22c.02.09.03.21.03.34 0 .12 0 .22-.03.31a.69.69 0 0 1-.09.23c-.04.06-.09.1-.14.14-.05.03-.11.05-.18.05h-6.49v7.79c0 .05-.01.1-.04.15-.03.05-.07.08-.14.11s-.15.05-.25.07c-.1.02-.24.03-.4.03-.16 0-.29 0-.4-.03-.11-.02-.2-.04-.26-.07s-.11-.06-.14-.11a.282.282 0 0 1-.04-.15V54.82c0-.33.09-.55.26-.68s.34-.18.51-.18h7.75c.06 0 .12.02.18.05.05.03.1.08.14.14.04.06.07.14.09.24s.03.21.03.33ZM356.11 70.91c0 .12 0 .22-.03.31a.69.69 0 0 1-.09.23c-.04.06-.09.11-.14.14-.05.03-.11.05-.18.05h-8.29c-.16 0-.33-.06-.51-.18s-.26-.35-.26-.68V54.81c0-.33.09-.55.26-.68s.34-.18.51-.18h8.16c.06 0 .12.02.18.05.05.03.1.08.14.14.04.06.06.14.08.24s.03.21.03.33c0 .12 0 .22-.03.31-.02.09-.05.17-.08.23-.04.06-.08.1-.14.14-.05.03-.11.05-.18.05h-7.26v6.22h6.26c.07 0 .14.02.19.05.05.03.1.08.14.14.04.06.06.14.08.23s.03.21.03.33c0 .12 0 .22-.03.31-.02.09-.05.16-.08.21s-.08.1-.14.12-.12.04-.19.04h-6.26v7.05h7.38c.06 0 .12.02.18.05.05.03.1.08.14.14.04.06.07.14.09.23s.03.21.03.33ZM370.68 71.34c0 .06-.01.12-.03.16-.02.05-.07.08-.13.12s-.15.06-.27.08c-.11.02-.26.03-.43.03-.16 0-.29 0-.39-.02s-.19-.04-.27-.08-.13-.1-.18-.16-.09-.16-.12-.27l-1.65-4.29c-.19-.48-.4-.94-.62-1.37-.22-.43-.48-.8-.79-1.11s-.68-.56-1.12-.75c-.44-.18-.96-.27-1.57-.27h-1.83v7.97c0 .05-.01.1-.04.15-.03.05-.07.08-.14.11s-.15.05-.25.07c-.1.02-.24.03-.4.03-.16 0-.29 0-.4-.03-.11-.02-.2-.04-.26-.07s-.11-.06-.14-.11a.282.282 0 0 1-.04-.15V54.82c0-.33.09-.55.26-.68s.34-.18.51-.18h3.32c.44 0 .8.01 1.09.03.29.02.55.05.79.09.67.12 1.26.31 1.76.57a3.935 3.935 0 0 1 1.97 2.29c.16.49.24 1.01.24 1.58s-.08 1.11-.25 1.57c-.16.46-.4.87-.7 1.22-.3.35-.66.65-1.08.91-.42.26-.88.47-1.38.64.3.14.57.31.81.51.24.2.46.44.67.72.21.28.4.61.58.98s.36.78.55 1.24l1.65 4.13c.12.32.19.54.23.66.03.12.05.21.05.26Zm-2.94-12.64c0-.76-.17-1.4-.51-1.92-.34-.52-.9-.9-1.7-1.13a6.6 6.6 0 0 0-.86-.16c-.31-.03-.72-.05-1.22-.05h-2.19v6.49h2.54c.68 0 1.27-.08 1.76-.25.49-.17.9-.4 1.22-.69.32-.29.56-.63.71-1.03.15-.39.23-.82.23-1.27ZM387.77 62.59c0 1.41-.16 2.69-.49 3.83-.32 1.14-.81 2.12-1.46 2.93s-1.46 1.43-2.45 1.87-2.13.66-3.45.66-2.44-.21-3.38-.62-1.72-1.01-2.32-1.78c-.61-.77-1.05-1.71-1.34-2.82-.29-1.11-.43-2.37-.43-3.76s.16-2.64.48-3.77c.32-1.13.8-2.09 1.46-2.89.65-.8 1.47-1.42 2.45-1.85s2.13-.66 3.45-.66 2.4.21 3.34.62 1.72 1 2.33 1.76 1.07 1.7 1.37 2.79.44 2.33.44 3.71Zm-1.78.15c0-1.05-.1-2.03-.29-2.95s-.52-1.71-.97-2.39a4.724 4.724 0 0 0-1.8-1.6c-.75-.39-1.67-.58-2.78-.58s-2.02.2-2.77.61-1.36.95-1.83 1.63-.81 1.48-1.01 2.39c-.21.91-.31 1.87-.31 2.88 0 1.08.09 2.08.28 3 .19.93.5 1.73.95 2.41s1.04 1.22 1.79 1.61c.75.39 1.68.58 2.8.58s2.05-.21 2.8-.62c.76-.41 1.37-.97 1.83-1.67s.8-1.5 1-2.42.3-1.88.3-2.89ZM402.23 71.34c0 .06-.01.12-.03.16-.02.05-.07.08-.13.12s-.15.06-.27.08c-.11.02-.26.03-.43.03-.16 0-.29 0-.39-.02s-.19-.04-.27-.08-.13-.1-.18-.16-.09-.16-.12-.27l-1.65-4.29c-.19-.48-.4-.94-.62-1.37-.22-.43-.48-.8-.79-1.11s-.68-.56-1.12-.75c-.44-.18-.96-.27-1.57-.27h-1.83v7.97c0 .05-.01.1-.04.15-.03.05-.07.08-.14.11s-.15.05-.25.07c-.1.02-.24.03-.4.03-.16 0-.29 0-.4-.03-.11-.02-.2-.04-.26-.07s-.11-.06-.14-.11a.282.282 0 0 1-.04-.15V54.82c0-.33.09-.55.26-.68s.34-.18.51-.18h3.32c.44 0 .8.01 1.09.03.29.02.55.05.79.09.67.12 1.26.31 1.76.57a3.935 3.935 0 0 1 1.97 2.29c.16.49.24 1.01.24 1.58s-.08 1.11-.25 1.57c-.16.46-.4.87-.7 1.22-.3.35-.66.65-1.08.91-.42.26-.88.47-1.38.64.3.14.57.31.81.51.24.2.46.44.67.72.21.28.4.61.58.98s.36.78.55 1.24l1.65 4.13c.12.32.19.54.23.66.03.12.05.21.05.26Zm-2.94-12.64c0-.76-.17-1.4-.51-1.92-.34-.52-.9-.9-1.7-1.13a6.6 6.6 0 0 0-.86-.16c-.31-.03-.72-.05-1.22-.05h-2.19v6.49h2.54c.68 0 1.27-.08 1.76-.25.49-.17.9-.4 1.22-.69.32-.29.56-.63.71-1.03.15-.39.23-.82.23-1.27ZM415.81 54.72c0 .12 0 .22-.03.31-.02.09-.05.17-.08.23-.04.06-.08.1-.14.14-.05.03-.11.05-.18.05h-5.28v15.93c0 .05-.01.1-.04.15-.03.05-.07.08-.14.11s-.15.05-.26.07c-.11.02-.24.03-.4.03s-.29 0-.4-.03c-.11-.02-.2-.04-.26-.07s-.11-.06-.14-.11a.282.282 0 0 1-.04-.15V55.45h-5.28c-.07 0-.13-.02-.18-.05a.442.442 0 0 1-.13-.14.618.618 0 0 1-.08-.23c-.02-.09-.03-.2-.03-.31 0-.13 0-.24.03-.33s.05-.18.08-.24c.04-.06.08-.11.13-.14.05-.03.11-.05.18-.05h12.22c.06 0 .12.02.18.05.05.03.1.08.14.14.04.06.06.14.08.24s.03.21.03.33ZM430.09 71.37c0 .05-.01.1-.04.15-.03.05-.07.08-.14.11s-.15.05-.26.07c-.11.02-.24.03-.4.03-.16 0-.3 0-.4-.03-.1-.02-.19-.04-.25-.07s-.11-.06-.14-.11a.282.282 0 0 1-.04-.15v-8.24h-8.83v8.24c0 .05-.01.1-.04.15-.03.05-.07.08-.14.11s-.15.05-.25.07c-.1.02-.24.03-.4.03-.16 0-.29 0-.4-.03-.11-.02-.2-.04-.26-.07s-.11-.06-.14-.11a.282.282 0 0 1-.04-.15V54.23c0-.05.01-.1.04-.15.03-.05.07-.08.14-.11s.15-.05.26-.07c.11-.02.24-.03.4-.03.16 0 .3 0 .4.03.1.02.19.04.25.07s.11.06.14.11c.03.05.04.1.04.15v7.41h8.83v-7.41c0-.05.01-.1.04-.15.03-.05.07-.08.14-.11s.15-.05.25-.07c.1-.02.24-.03.4-.03.16 0 .29 0 .4.03.11.02.2.04.26.07s.11.06.14.11c.03.05.04.1.04.15v17.14ZM448.79 62.59c0 1.41-.16 2.69-.49 3.83-.32 1.14-.81 2.12-1.46 2.93s-1.46 1.43-2.45 1.87-2.13.66-3.45.66-2.44-.21-3.38-.62-1.72-1.01-2.32-1.78c-.61-.77-1.05-1.71-1.34-2.82-.29-1.11-.43-2.37-.43-3.76s.16-2.64.48-3.77c.32-1.13.8-2.09 1.46-2.89.65-.8 1.47-1.42 2.45-1.85s2.13-.66 3.45-.66 2.4.21 3.34.62 1.72 1 2.33 1.76 1.07 1.7 1.37 2.79.44 2.33.44 3.71Zm-1.78.15c0-1.05-.1-2.03-.29-2.95s-.52-1.71-.97-2.39a4.724 4.724 0 0 0-1.8-1.6c-.75-.39-1.67-.58-2.78-.58s-2.02.2-2.77.61-1.36.95-1.83 1.63-.81 1.48-1.01 2.39c-.21.91-.31 1.87-.31 2.88 0 1.08.09 2.08.28 3 .19.93.5 1.73.95 2.41s1.04 1.22 1.79 1.61c.75.39 1.68.58 2.8.58s2.05-.21 2.8-.62c.76-.41 1.37-.97 1.83-1.67s.8-1.5 1-2.42.3-1.88.3-2.89ZM462.36 59.02c0 .82-.14 1.57-.42 2.26s-.68 1.27-1.2 1.76-1.15.88-1.9 1.15-1.65.41-2.71.41h-2.3v6.77c0 .05-.01.1-.04.15-.03.05-.07.08-.14.11s-.15.05-.25.07c-.1.02-.24.03-.4.03-.16 0-.29 0-.4-.03-.11-.02-.2-.04-.26-.07s-.11-.06-.14-.11a.282.282 0 0 1-.04-.15V54.81c0-.33.09-.55.26-.68s.34-.18.51-.18h3.6c.36 0 .7.02 1.04.05.34.03.73.1 1.18.21.45.1.91.3 1.38.59s.87.64 1.2 1.05c.33.42.58.89.76 1.42s.27 1.12.27 1.76Zm-1.76.16c0-.77-.15-1.42-.45-1.95s-.67-.93-1.1-1.19-.88-.42-1.35-.49-.91-.1-1.33-.1h-2.52v7.68h2.41c.77 0 1.42-.1 1.94-.29.52-.2.96-.47 1.31-.81.36-.35.63-.76.81-1.25.19-.49.28-1.02.28-1.59ZM476.07 71.08c.05.14.08.25.08.33 0 .09-.04.15-.1.2s-.15.08-.27.09-.28.02-.47.02-.34 0-.46-.02-.2-.03-.27-.06-.11-.06-.14-.11c-.03-.05-.06-.1-.09-.16l-1.7-4.72h-7.77l-1.63 4.69c-.02.06-.05.12-.08.16-.04.05-.09.08-.15.12s-.15.06-.27.08c-.11.02-.26.03-.43.03-.19 0-.35 0-.48-.03-.13-.02-.22-.05-.28-.1s-.09-.11-.1-.19.02-.19.08-.33l6.19-16.83c.03-.07.07-.13.12-.18.05-.05.12-.09.21-.12s.19-.05.31-.06.26-.02.42-.02c.16 0 .31 0 .43.02s.23.03.31.06.16.07.21.12c.05.05.09.11.12.18l6.19 16.83Zm-8.84-20.3c0 .44-.08.73-.23.89-.16.16-.44.23-.85.23s-.68-.08-.83-.23-.23-.44-.23-.88.08-.73.23-.89c.16-.15.43-.23.83-.23s.69.08.84.23.23.44.23.88Zm1.5 4.96h-.01l-3.34 9.52h6.77l-3.42-9.52Zm3.98-4.96c0 .44-.08.73-.23.89-.16.16-.44.23-.85.23s-.68-.08-.83-.23-.23-.44-.23-.88.08-.73.23-.89c.16-.15.43-.23.83-.23s.69.08.84.23.23.44.23.88ZM491.59 62.54c0 1.49-.19 2.8-.56 3.93s-.92 2.08-1.65 2.85-1.63 1.34-2.7 1.74c-1.07.39-2.35.59-3.83.59h-3.49c-.16 0-.33-.06-.51-.18s-.26-.35-.26-.68V54.82c0-.33.09-.55.26-.68s.34-.18.51-.18h3.72c1.5 0 2.77.21 3.81.62s1.9.99 2.6 1.74 1.22 1.65 1.58 2.71.53 2.23.53 3.52Zm-1.79.08c0-1.03-.13-1.98-.39-2.86-.26-.88-.66-1.64-1.2-2.28-.54-.64-1.23-1.14-2.06-1.5-.83-.36-1.89-.54-3.17-.54h-2.72v14.71h2.73c1.2 0 2.22-.15 3.06-.44.83-.3 1.53-.75 2.08-1.37.56-.62.97-1.4 1.25-2.34s.42-2.07.42-3.37ZM496.55 71.37c0 .05-.01.1-.04.15-.03.05-.07.08-.14.11s-.15.05-.25.07c-.1.02-.24.03-.4.03-.16 0-.29 0-.4-.03-.11-.02-.2-.04-.26-.07s-.11-.06-.14-.11a.282.282 0 0 1-.04-.15V54.23c0-.05.02-.1.05-.15.03-.05.08-.08.15-.11s.16-.05.26-.07c.1-.02.23-.03.38-.03.16 0 .3 0 .4.03.1.02.19.04.25.07s.11.06.14.11c.03.05.04.1.04.15v17.14ZM510.5 70.91c0 .12 0 .22-.03.31a.69.69 0 0 1-.09.23c-.04.06-.09.11-.14.14-.05.03-.11.05-.18.05h-8.29c-.16 0-.33-.06-.51-.18s-.26-.35-.26-.68V54.81c0-.33.09-.55.26-.68s.34-.18.51-.18h8.16c.06 0 .12.02.18.05.05.03.1.08.14.14.04.06.06.14.08.24s.03.21.03.33c0 .12 0 .22-.03.31-.02.09-.05.17-.08.23-.04.06-.08.1-.14.14-.05.03-.11.05-.18.05h-7.26v6.22h6.26c.07 0 .14.02.19.05.05.03.1.08.14.14.04.06.06.14.08.23s.03.21.03.33c0 .12 0 .22-.03.31-.02.09-.05.16-.08.21s-.08.1-.14.12-.12.04-.19.04h-6.26v7.05h7.38c.06 0 .12.02.18.05.05.03.1.08.14.14.04.06.07.14.09.23s.03.21.03.33Z"/>
    </g>
    <g fill="#fff">
        <path d="M31.12 106.71c.12.03.17.05.29.08.37.1.55.16.92.26.12.03.17.05.29.08l-.08.28c-1.21 4.34-1.82 6.5-3.03 10.84-.59 2.13-1.74 3.63-3.43 4.49-1.73.88-3.78.99-6.14.28a9.897 9.897 0 0 1-3.5-1.88c-1.01-.84-1.69-1.78-2.05-2.78-.01-.04-.02-.06-.03-.1.01-.03.02-.05.03-.08l.4-1.25c.14-.42.2-.64.34-1.06.11.44.16.66.27 1.1.21.99.78 1.93 1.7 2.81.97.92 2.07 1.57 3.25 1.92 1.82.55 3.49.48 4.87-.23 1.35-.7 2.29-2.02 2.81-3.83.1-.34.15-.51.24-.85-.72.51-1.59.89-2.56 1.08-1.43.27-2.9.16-4.29-.26-2.18-.66-3.84-1.87-4.89-3.58-1.04-1.7-1.25-3.47-.67-5.23.57-1.76 1.78-3.06 3.57-3.86 1.81-.81 3.79-.87 5.89-.24.69.21 1.34.49 1.95.84s1.17.77 1.68 1.25c.18.17.34.35.49.53.15.18.29.36.42.55.13.19.25.38.35.58.1.2.19.39.25.59.23-.82.35-1.24.59-2.06.03-.11.05-.16.08-.27Zm-13.76 2.59c-.45 1.4-.26 2.8.58 4.14.88 1.4 2.21 2.37 3.93 2.88.57.17 1.13.28 1.68.32.55.04 1.08.02 1.6-.08s1.03-.26 1.52-.49c.71-.33 1.29-.76 1.74-1.28s.77-1.15.97-1.86c.4-1.41.19-2.8-.62-4.1-.85-1.36-2.14-2.29-3.79-2.79-.56-.17-1.11-.28-1.65-.32s-1.07-.03-1.59.06-1.03.24-1.52.47c-.74.33-1.34.74-1.81 1.24s-.82 1.1-1.04 1.81ZM46.2 121.84c-1.82 1.16-3.87 1.47-6.11.91-.12-.03-.18-.04-.3-.07-2.18-.54-3.9-1.68-5.03-3.38-1.11-1.67-1.4-3.44-.93-5.19.47-1.75 1.61-3.09 3.35-3.98 1.76-.9 3.81-1.04 6.09-.48.56.14 1.11.31 1.62.54.49.22.94.5 1.34.79.4.29.77.62 1.12 1 .34.37.65.8.93 1.27.07.09.1.13.17.21l-.25.15c-4.55 2.32-6.86 3.45-11.55 5.63 1.05 1.08 2.17 1.76 3.32 2.05 1.26.31 2.42.34 3.47.08a6.43 6.43 0 0 0 2.73-1.44c.28-.25.43-.38.71-.63-.09.37-.13.55-.21.92-.13.57-.2.85-.33 1.42l-.03.11c-.04.03-.07.04-.11.06Zm-5.91-11.1c-.78.09-1.54.33-2.28.72-.72.38-1.31.84-1.75 1.38-.45.54-.76 1.16-.95 1.86-.34 1.29-.22 2.55.39 3.8 4.3-2.1 6.42-3.18 10.58-5.39-.46-.56-.98-1.03-1.55-1.37-.6-.37-1.29-.64-2.05-.83-.81-.2-1.61-.26-2.38-.17ZM56.4 115.28c-.4-.94-1.02-1.5-1.88-1.68a1.963 1.963 0 0 0-.84-.01c-.14.03-.28.08-.41.14-.36.17-.59.45-.67.82-.08.37.03.76.33 1.15.35.45.79.88 1.32 1.31.56.45 1.12.92 1.68 1.4.59.51 1.09 1.11 1.43 1.78.36.7.45 1.45.3 2.22-.11.56-.34 1.06-.68 1.5-.34.44-.79.8-1.35 1.1-1.11.59-2.34.74-3.68.45a5.63 5.63 0 0 1-2.27-1.05c-.66-.5-1.12-1.09-1.34-1.76 0-.02-.01-.04-.02-.06 0-.03.01-.05.02-.08.12-.53.18-.8.3-1.34.12-.51.17-.77.29-1.28l.3 1.3c.37 1.61 1.34 2.58 2.91 2.92a4.141 4.141 0 0 0 1.81.02c.28-.07.54-.16.8-.29.75-.39 1.19-.89 1.31-1.51.07-.34.08-.64.03-.93-.05-.28-.14-.56-.3-.82a5.872 5.872 0 0 0-1.3-1.47c-.56-.49-1.14-.96-1.68-1.41a6.538 6.538 0 0 1-1.38-1.62c-.37-.63-.48-1.3-.32-2 .07-.33.22-.64.45-.91.22-.27.52-.49.88-.67.36-.17.76-.26 1.17-.3.41-.04.86-.02 1.32.08.95.2 1.69.73 2.23 1.58.03.04.04.06.07.1 0 .04-.01.07-.02.11-.09.46-.14.69-.24 1.15-.08.37-.11.55-.19.92-.15-.35-.22-.52-.37-.87ZM73.41 116.09c.12.02.18.03.29.05l.94.15c.12.02.18.03.29.05-.02.11-.03.17-.04.28l-1.9 12.13c-.02.11-.03.17-.04.28l-.3-.05-.97-.15-.3-.05.05-.28.25-1.55c-1.36 1.25-3.24 1.67-5.63 1.25-1.98-.35-3.48-1.19-4.48-2.51-1-1.32-1.34-2.76-1.04-4.31.55-2.82.82-4.22 1.36-7.04l.05-.28c.12.02.18.03.29.06.37.07.56.11.94.18.12.02.18.03.29.06l-.05.28-1.33 7.02c-.22 1.16.05 2.26.82 3.26.79 1.04 1.94 1.69 3.39 1.95 1.45.25 2.82.05 4-.65 1.12-.67 1.78-1.63 1.97-2.78.45-2.82.68-4.23 1.14-7.05l.05-.28ZM77.88 129.78c-.12-.02-.18-.03-.3-.04-.39-.06-.58-.08-.97-.14-.12-.02-.18-.03-.3-.04.02-.11.03-.17.04-.28l1.8-12.15c.02-.11.03-.17.04-.28.12.02.18.03.29.04.38.06.56.08.94.14.12.02.18.03.29.04-.02.11-.02.17-.04.28l-.22 1.56c1.31-1.27 3.11-1.75 5.43-1.45 1.92.25 3.41.99 4.46 2.23 1.06 1.24 1.5 2.65 1.33 4.22l-.8 7.13c-.01.11-.02.17-.03.28-.12-.01-.18-.02-.31-.03-.39-.04-.59-.07-.98-.11-.12-.01-.18-.02-.3-.04.01-.11.02-.17.03-.28.33-2.84.49-4.26.82-7.09.07-.59.02-1.14-.15-1.67s-.46-1.04-.86-1.53c-.4-.49-.89-.88-1.45-1.17-.56-.29-1.21-.48-1.94-.58-1.42-.18-2.74.08-3.87.8-1.08.7-1.72 1.67-1.89 2.82-.41 2.83-.61 4.24-1.01 7.07-.02.11-.02.17-.04.28ZM109.8 111.54c0 .11-.01.17-.02.29l-1.3 20.81c0 .11-.01.17-.02.29-.12 0-.18-.01-.31-.02-.39-.02-.59-.04-.98-.06-.12 0-.18-.01-.31-.02 0-.11.01-.17.02-.29.06-.85.09-1.28.14-2.14-.31.34-.66.65-1.04.92-.39.27-.81.51-1.28.7-.67.28-1.36.47-2.04.58-.69.11-1.38.13-2.07.08-2.27-.19-4.15-1.02-5.5-2.48-1.33-1.43-1.89-3.13-1.7-4.97.06-.61.2-1.18.42-1.72.22-.54.51-1.04.88-1.5.37-.46.81-.88 1.33-1.27s1.08-.73 1.65-.96c.6-.24 1.27-.39 1.95-.48.66-.09 1.36-.11 2.09-.05.35.03.7.08 1.03.14.33.06.66.15.98.26.32.11.64.24.95.39s.63.31.93.48c.28.17.54.36.78.57.23.21.45.42.64.63.19.21.37.44.54.68.28-4.26.43-6.4.71-10.66 0-.11.01-.17.02-.29.12 0 .17.01.29.02.37.02.56.04.93.06.12 0 .17.01.29.02Zm-14.84 13.85c-.14 1.45.3 2.78 1.36 3.91 1.11 1.18 2.59 1.85 4.35 1.99s3.33-.27 4.65-1.25c1.27-.94 1.95-2.17 2.04-3.61.03-.47 0-.94-.1-1.4a4.984 4.984 0 0 0-1.41-2.49c-1.16-1.17-2.58-1.82-4.28-1.96-1.7-.14-3.23.25-4.51 1.2-1.25.92-1.96 2.15-2.1 3.6ZM121.98 126.73c.04-1.58.6-3.02 1.64-4.33.31-.37.64-.71 1-1.02.36-.31.74-.58 1.14-.81.4-.23.82-.43 1.25-.59-.53-.37-.96-.85-1.31-1.39-.48-.75-.74-1.55-.72-2.38 0-.25.03-.49.07-.74.04-.25.11-.48.19-.7.08-.22.18-.43.29-.64.11-.21.24-.41.39-.61.15-.2.32-.38.52-.55.47-.43 1-.76 1.58-.98.58-.22 1.22-.33 1.91-.32s1.33.14 1.92.41 1.12.66 1.58 1.17l.09.09v3.02c-.22-.51-.34-.77-.56-1.28-.25-.57-.68-1.06-1.28-1.46-.29-.19-.61-.33-.94-.43-.34-.1-.71-.15-1.12-.15-.76 0-1.46.31-2.12.93-.66.63-1 1.37-1.01 2.23-.01.86.3 1.61.95 2.26.65.65 1.43.97 2.34.98h.71V120.82h-.54c-.85 0-1.64.14-2.38.43-.74.3-1.43.74-2.07 1.34-.65.6-1.14 1.24-1.47 1.94-.34.7-.51 1.46-.53 2.3-.04 1.64.56 3.07 1.82 4.28 1.26 1.21 2.78 1.83 4.56 1.84 1.78.01 3.31-.58 4.58-1.77s1.89-2.62 1.87-4.3c-.03-2.43-.04-3.65-.06-6.08-1.53.02-2.3.02-3.83.02h-.3V119.44h.29c3.64 0 5.46-.02 9.1-.11h.29v.29c0 .32.01.48.02.8v.29h-.3c-1.53.04-2.29.05-3.82.08.07 5.14.11 7.71.19 12.85v.29h-.31c-.37 0-.55 0-.92.01h-.31v-.29c-.01-.98-.02-1.47-.03-2.46-.26.38-.56.73-.91 1.05-.34.32-.75.61-1.22.88-1.34.83-2.81 1.23-4.39 1.22-2.23-.01-4.14-.78-5.68-2.29-1.55-1.51-2.28-3.29-2.22-5.33ZM167.15 119.18c.12-.01.18-.02.3-.03.38-.04.57-.05.95-.09.12-.01.18-.02.29-.03.01.11.02.17.03.28l1.1 11.2c.22 2.2-.3 4.01-1.55 5.43-1.28 1.45-3.14 2.29-5.56 2.48a9.63 9.63 0 0 1-3.91-.49c-1.23-.42-2.2-1.05-2.89-1.85-.03-.03-.04-.05-.07-.08v-.09c-.04-.52-.05-.79-.08-1.31-.03-.44-.04-.67-.07-1.11.26.37.38.56.64.93.55.84 1.41 1.52 2.58 2.01 1.23.51 2.47.71 3.69.62 1.88-.15 3.39-.81 4.41-1.98.99-1.14 1.39-2.71 1.22-4.59-.03-.35-.05-.53-.08-.88-.48.73-1.15 1.41-1.97 1.93-1.22.77-2.62 1.2-4.05 1.31-2.25.17-4.22-.35-5.79-1.57-1.57-1.21-2.39-2.79-2.5-4.63-.11-1.84.54-3.5 1.9-4.89 1.38-1.4 3.18-2.18 5.35-2.35.71-.06 1.41-.03 2.1.07.69.1 1.36.29 2 .56.23.09.44.2.64.32s.39.24.59.36c.19.13.37.26.53.41.16.15.31.3.45.46l-.2-2.13c-.01-.11-.02-.17-.03-.28Zm-11.76 7.39c.09 1.46.76 2.7 2.02 3.65 1.31.98 2.89 1.41 4.66 1.27.59-.05 1.14-.15 1.66-.31s1-.37 1.45-.65c.45-.28.86-.61 1.23-1.01.54-.56.92-1.17 1.15-1.83.22-.65.3-1.35.23-2.09-.14-1.46-.83-2.68-2.05-3.6-1.28-.96-2.8-1.36-4.5-1.23-.57.04-1.12.14-1.64.3-.52.15-1 .36-1.45.63-.45.27-.86.6-1.24.98-.56.57-.97 1.17-1.22 1.81-.25.64-.36 1.32-.31 2.07ZM186.57 127.83c-1.28 1.74-3.06 2.77-5.34 3.06-.12.02-.18.02-.31.04-2.22.28-4.22-.16-5.88-1.34-1.63-1.16-2.53-2.7-2.72-4.5-.19-1.8.37-3.47 1.67-4.92 1.31-1.47 3.15-2.35 5.47-2.64.57-.07 1.15-.11 1.7-.08.53.03 1.06.13 1.53.25.48.13.94.3 1.4.53.45.22.89.51 1.33.85.09.06.14.08.23.14l-.18.23c-3.38 3.81-5.12 5.7-8.68 9.43 1.37.63 2.64.86 3.82.71 1.28-.16 2.37-.55 3.24-1.18.86-.61 1.54-1.39 2.02-2.33.17-.34.26-.5.43-.84.05.37.08.56.13.93.08.58.12.87.21 1.44 0 .05 0 .07.02.11-.03.04-.05.06-.08.1Zm-9.48-8.21c-.69.36-1.3.86-1.85 1.5-.53.62-.91 1.26-1.12 1.92-.22.67-.29 1.36-.21 2.08.15 1.32.72 2.46 1.73 3.4 3.22-3.51 4.8-5.28 7.87-8.85-.63-.35-1.28-.6-1.94-.72-.69-.12-1.43-.13-2.2-.03-.83.11-1.58.34-2.27.7ZM194.76 116.89a3.58 3.58 0 0 0-1.42-.05c-.31.05-.61.14-.89.26s-.55.28-.8.46a4.13 4.13 0 0 0-1.2 1.47 2.828 2.828 0 0 0-.24 1.68c.5 3.23.76 4.84 1.26 8.07.02.11.03.17.04.28l-.3.05-.97.15-.3.05c-.02-.11-.03-.17-.04-.28-.74-4.86-1.11-7.29-1.84-12.14-.02-.11-.03-.17-.04-.28.12-.02.18-.03.29-.04.38-.06.56-.09.94-.14.12-.02.18-.03.29-.05.02.11.03.17.04.28l.15.99c.28-.41.63-.78 1.06-1.12.72-.56 1.56-.92 2.54-1.08.98-.16 1.97 0 2.98.48.05.03.08.04.13.06 0 .06.01.08.02.14l.2 1.13c.05.27.07.41.12.68-.23-.16-.35-.23-.59-.39-.48-.32-.96-.54-1.43-.65ZM213.08 111.92l.06.28c1.07 4.8 1.6 7.19 2.67 11.99.02.11.04.17.06.28-.12.03-.18.04-.3.07-.39.09-.58.13-.96.21-.12.03-.18.04-.3.07-.02-.11-.04-.17-.06-.28-.19-.85-.28-1.27-.46-2.12-.15.29-.3.56-.47.82-.16.26-.35.5-.55.72-.2.22-.43.44-.67.67-.18.14-.37.27-.57.41-.2.14-.41.27-.61.39-.21.12-.41.23-.63.32-.21.09-.43.18-.65.27s-.45.16-.69.23c-.24.07-.48.13-.72.17-2.22.45-4.24.17-5.96-.85-1.71-1.01-2.72-2.47-3.05-4.29-.33-1.82.11-3.54 1.3-5.09 1.2-1.56 2.9-2.55 5.04-2.99.7-.14 1.4-.2 2.11-.17s1.44.12 2.12.31c.88.25 1.66.7 2.29 1.26-.18-.83-.27-1.24-.45-2.06-.02-.11-.04-.17-.06-.28.12-.03.18-.04.29-.06.37-.08.56-.12.93-.21.12-.03.17-.04.29-.06Zm-12.32 9.1c.26 1.42 1.08 2.56 2.45 3.35 1.42.82 3.04 1.05 4.79.69.58-.12 1.12-.29 1.62-.51.5-.22.95-.49 1.37-.82.41-.33.78-.71 1.1-1.15.47-.63.78-1.28.92-1.95s.14-1.37-.02-2.1c-.31-1.41-1.16-2.54-2.51-3.31-1.39-.79-2.96-1.01-4.64-.67-1.68.34-3.04 1.15-4.04 2.45-.96 1.25-1.32 2.61-1.06 4.03ZM228.46 99.27c.03.11.05.17.08.28 2.21 8.04 3.32 12.06 5.53 20.1.03.11.05.17.08.28-.12.03-.18.05-.3.08-.38.1-.57.16-.96.26-.12.03-.18.05-.3.08-.03-.11-.04-.17-.07-.28-.22-.83-.34-1.24-.56-2.07-.18.42-.41.83-.7 1.21-.28.38-.61.74-.99 1.08-.55.48-1.14.89-1.76 1.21-.62.33-1.27.58-1.95.75-2.22.56-4.28.39-6.04-.55-1.73-.92-2.81-2.34-3.23-4.14a6.25 6.25 0 0 1-.16-1.77c.03-.58.15-1.15.35-1.71.2-.55.48-1.1.85-1.64.37-.54.79-1.04 1.25-1.45.49-.42 1.08-.78 1.7-1.09.6-.3 1.26-.55 1.97-.73.35-.09.69-.16 1.03-.2.34-.05.68-.07 1.02-.07.34 0 .68.02 1.03.06.35.04.7.08 1.05.15.32.07.64.17.93.29.29.12.56.25.82.39.25.14.5.29.73.47-1.12-4.12-1.67-6.19-2.79-10.31-.03-.11-.04-.17-.07-.28.11-.03.17-.05.28-.08l.9-.25c.11-.03.17-.05.28-.08Zm-9.63 17.94c.33 1.42 1.19 2.53 2.56 3.25 1.43.75 3.06.9 4.79.47 1.72-.44 3.09-1.34 4.02-2.7.9-1.3 1.15-2.69.77-4.08a4.92 4.92 0 0 0-.55-1.29c-.24-.4-.54-.76-.9-1.07-.36-.32-.77-.59-1.25-.82-1.48-.73-3.05-.88-4.71-.46-1.67.42-2.99 1.29-3.9 2.61-.89 1.28-1.16 2.67-.83 4.09ZM249.99 113.12c-.97 1.94-2.58 3.26-4.8 3.94-.12.04-.18.05-.3.09-2.16.66-4.23.57-6.07-.31-1.81-.86-2.97-2.23-3.47-3.97-.49-1.74-.22-3.48.82-5.14 1.05-1.67 2.73-2.86 4.99-3.55a9.1 9.1 0 0 1 1.67-.37c.54-.06 1.07-.06 1.57-.01.5.04.99.13 1.48.28.49.14.98.35 1.46.61l.25.1c-.06.1-.08.15-.14.26-2.72 4.34-4.13 6.5-7.04 10.79 1.46.38 2.77.4 3.91.05 1.24-.38 2.26-.95 3.03-1.72.75-.75 1.29-1.64 1.61-2.64.12-.36.17-.54.29-.9.12.36.17.54.29.9.18.55.27.83.45 1.39.01.04.02.07.04.11-.02.04-.04.07-.06.11Zm-10.82-6.46c-.62.47-1.15 1.07-1.59 1.8-.42.7-.69 1.4-.79 2.09-.1.69-.06 1.39.14 2.08.37 1.28 1.13 2.3 2.29 3.05 2.61-4.01 3.88-6.03 6.32-10.08-.69-.24-1.38-.37-2.05-.37-.71 0-1.44.12-2.19.35-.8.25-1.52.61-2.14 1.08Z"/>
    </g>
    <ellipse cx="111.03" cy="59.39" rx="21.59" ry="26.25" fill="#fff"/>
    <ellipse cx="71.91" cy="53.74" rx="20.29" ry="16.81" transform="rotate(-85.64 71.913 53.741)" fill="#fff"/>
    <ellipse cx="38.97" cy="46.5" rx="19.44" ry="15.78" transform="rotate(-80.26 38.965 46.504)" fill="#fff"/>
    <ellipse cx="155.05" cy="59.26" rx="21.59" ry="26.25" fill="#fff"/>
    <ellipse cx="194.24" cy="53.51" rx="16.81" ry="20.29" transform="rotate(-4.36 194.349 53.568)" fill="#fff"/>
    <ellipse cx="227.13" cy="46.34" rx="15.78" ry="19.44" transform="rotate(-9.74 227.109 46.363)" fill="#fff"/>
    <path d="M133.96 62.34c8.28.39 15.31.25 20.66 0 8.98-.42 15.82-1.3 22.83-2.21 7.93-1.02 14.14-2.08 17.54-2.69 4.63-.83 9.91-1.78 16.82-3.44 5.07-1.22 10.09-2.43 16.58-4.66a145.71 145.71 0 0 0 13.86-5.58" fill="none" stroke="#737373" stroke-linecap="round" stroke-miterlimit="100" stroke-width="1.5"/>
    <path d="m162.59 70.16-12.46.6a2.852 2.852 0 0 1-2.97-2.7l-.57-11.86a2.852 2.852 0 0 1 2.7-2.97l12.46-.6a2.852 2.852 0 0 1 2.97 2.7l.57 11.86a2.852 2.852 0 0 1-2.7 2.97ZM199.25 48.95c-.15 0-.29.01-.44.03l-9.75 1.54c-1.54.24-2.6 1.7-2.36 3.24l1.46 9.24a2.842 2.842 0 0 0 2.8 2.39c.15 0 .29-.01.44-.03l9.75-1.54c1.54-.24 2.6-1.7 2.36-3.24l-1.46-9.24a2.842 2.842 0 0 0-2.8-2.39ZM231.11 41.2c-.26 0-.52.04-.78.11l-8.77 2.53c-1.5.43-2.37 2.01-1.94 3.51l2.39 8.3a2.85 2.85 0 0 0 2.73 2.05c.26 0 .52-.04.78-.11l8.77-2.53c1.5-.43 2.37-2.01 1.94-3.51l-2.39-8.3a2.85 2.85 0 0 0-2.73-2.05Z" fill="#737373"/>
</svg>
