<svg xmlns="http://www.w3.org/2000/svg" viewBox="0 0 566.93 170.08">
    <defs>
        <style>
            .cls-4{fill:#fff}.cls-8{letter-spacing:-.13em}.cls-11,.cls-9{letter-spacing:-.03em}.cls-12{letter-spacing:-.02em}.cls-19{fill:#737373}
        </style>
    </defs>
    <path style="fill:#949494" d="M261.66 0h305.27v170.08H261.66z" id="Hintergrund_grau"/>
    <path style="fill:#9b2c4e" d="M0 0h261.66v170.08H0z" id="Hintergrund_rot"/>
    <text transform="translate(275.59 101.83)" style="font-family:Calibri-Light,Calibri;font-weight:300;font-size:24px" id="Ebene_28"><tspan class="cls-11" x="0" y="0">D</tspan><tspan class="cls-8" x="13.97" y="0">r</tspan><tspan class="cls-12" x="19.06" y="0">. Geo</tspan><tspan x="66.79" y="0" style="letter-spacing:-.04em">r</tspan><tspan class="cls-11" x="74.11" y="0">g Dumbach</tspan><tspan class="cls-11" x="0" y="24">D</tspan><tspan class="cls-8" x="13.97" y="24">r</tspan><tspan class="cls-12" x="19.06" y="24">. Johannes Dumbach</tspan><tspan class="cls-11" x="0" y="48">D</tspan><tspan class="cls-8" x="13.97" y="48">r</tspan><tspan class="cls-12" x="19.06" y="48">. S</tspan><tspan x="39.42" y="48" style="letter-spacing:-.03em">t</tspan><tspan class="cls-11" x="46.47" y="48">ephanie </tspan><tspan x="124.82" y="48" style="letter-spacing:-.04em">K</tspan><tspan class="cls-11" x="135.86" y="48">napp Dumbach</tspan></text>
    <text transform="translate(275.63 41.64)" style="font-size:28px;fill:#fff;font-family:Calibri-Light,Calibri;font-weight:300" id="ZAHNARZTPRAXIS_KIEFERORTHOPÄDIE"><tspan x="0" y="0" style="letter-spacing:-.03em">Z</tspan><tspan x="12.14" y="0" style="letter-spacing:-.02em">AHNARZTPRAXIS</tspan><tspan class="cls-9" x="0" y="30">&amp; KIEFE</tspan><tspan x="81.4" y="30" style="letter-spacing:-.03em">R</tspan><tspan class="cls-9" x="95.33" y="30">O</tspan><tspan x="112.95" y="30" style="letter-spacing:-.03em">R</tspan><tspan class="cls-9" x="126.88" y="30">THO</tspan><tspan x="173.97" y="30" style="letter-spacing:-.1em">P</tspan><tspan class="cls-9" x="185.3" y="30">ÄDIE</tspan></text>
    <g id="gesund_gerade">
        <path class="cls-4" d="M31.12 106.71c.12.03.17.05.29.08.37.1.55.16.92.26.12.03.17.05.29.08-.03.11-.05.17-.08.28-1.21 4.34-1.82 6.5-3.03 10.84-.59 2.13-1.74 3.63-3.43 4.49-1.73.88-3.78.99-6.14.28a9.897 9.897 0 0 1-3.5-1.88c-1.01-.84-1.69-1.78-2.05-2.78-.01-.04-.02-.06-.03-.1.01-.03.02-.05.03-.08l.4-1.25c.14-.42.2-.64.34-1.06.11.44.16.66.27 1.1.21.99.78 1.93 1.7 2.81.97.92 2.07 1.57 3.25 1.92 1.82.55 3.49.48 4.87-.23 1.35-.7 2.29-2.02 2.81-3.83.1-.34.15-.51.24-.85-.72.51-1.59.89-2.56 1.08-1.43.27-2.9.16-4.29-.26-2.18-.66-3.84-1.87-4.89-3.58-1.04-1.7-1.25-3.47-.67-5.23.57-1.76 1.78-3.06 3.57-3.86 1.81-.81 3.79-.87 5.89-.24.69.21 1.34.49 1.95.84.62.35 1.17.77 1.68 1.25.18.17.34.35.49.53.15.18.29.36.42.55.13.19.25.38.35.58.1.2.19.39.25.59.23-.82.35-1.24.59-2.06.03-.11.05-.16.08-.27Zm-13.76 2.59c-.45 1.4-.26 2.8.58 4.14.88 1.4 2.21 2.37 3.93 2.88.57.17 1.13.28 1.68.32s1.08.02 1.6-.08 1.03-.26 1.52-.49c.71-.33 1.29-.76 1.74-1.28.45-.53.77-1.15.97-1.86.4-1.41.19-2.8-.62-4.1-.85-1.36-2.14-2.29-3.79-2.79-.56-.17-1.11-.28-1.65-.32-.54-.05-1.07-.03-1.59.06s-1.03.24-1.52.47c-.74.33-1.34.74-1.81 1.24s-.82 1.1-1.04 1.81ZM46.2 121.84c-1.82 1.16-3.87 1.47-6.11.91-.12-.03-.18-.04-.3-.07-2.18-.54-3.9-1.68-5.03-3.38-1.11-1.67-1.4-3.44-.93-5.19.47-1.75 1.61-3.09 3.35-3.98 1.76-.9 3.81-1.04 6.09-.48.56.14 1.11.31 1.62.54.49.22.94.5 1.34.79.4.29.77.62 1.12 1 .34.37.65.8.93 1.27.07.09.1.13.17.21l-.25.15c-4.55 2.32-6.86 3.45-11.55 5.63 1.05 1.08 2.17 1.76 3.32 2.05 1.26.31 2.42.34 3.47.08a6.43 6.43 0 0 0 2.73-1.44c.28-.25.43-.38.71-.63-.09.37-.13.55-.21.92-.13.57-.2.85-.33 1.42l-.03.11c-.04.03-.07.04-.11.06Zm-5.91-11.1c-.78.09-1.54.33-2.28.72-.72.38-1.31.84-1.75 1.38-.45.54-.76 1.16-.95 1.86-.34 1.29-.22 2.55.39 3.8 4.3-2.1 6.42-3.18 10.58-5.39-.46-.56-.98-1.03-1.55-1.37-.6-.37-1.29-.64-2.05-.83-.81-.2-1.61-.26-2.38-.17ZM56.4 115.28c-.4-.94-1.02-1.5-1.88-1.68a1.963 1.963 0 0 0-.84-.01c-.14.03-.28.08-.41.14-.36.17-.59.45-.67.82-.08.37.03.76.33 1.15.35.45.79.88 1.32 1.31.56.45 1.12.92 1.68 1.4.59.51 1.09 1.11 1.43 1.78.36.7.45 1.45.3 2.22-.11.56-.34 1.06-.68 1.5-.34.44-.79.8-1.35 1.1-1.11.59-2.34.74-3.68.45a5.63 5.63 0 0 1-2.27-1.05c-.66-.5-1.12-1.09-1.34-1.76 0-.02-.01-.04-.02-.06 0-.03.01-.05.02-.08.12-.53.18-.8.3-1.34.12-.51.17-.77.29-1.28l.3 1.3c.37 1.61 1.34 2.58 2.91 2.92a4.141 4.141 0 0 0 1.81.02c.28-.07.54-.16.8-.29.75-.39 1.19-.89 1.31-1.51.07-.34.08-.64.03-.93-.05-.28-.14-.56-.3-.82a5.872 5.872 0 0 0-1.3-1.47c-.56-.49-1.14-.96-1.68-1.41a6.538 6.538 0 0 1-1.38-1.62c-.37-.63-.48-1.3-.32-2 .07-.33.22-.64.45-.91.22-.27.52-.49.88-.67.36-.17.76-.26 1.17-.3.41-.04.86-.02 1.32.08.95.2 1.69.73 2.23 1.58.03.04.04.06.07.1 0 .04-.01.07-.02.11-.09.46-.14.69-.24 1.15-.08.37-.11.55-.19.92-.15-.35-.22-.52-.37-.87ZM73.41 116.09c.12.02.18.03.29.05l.94.15c.12.02.18.03.29.05-.02.11-.03.17-.04.28l-1.9 12.13c-.02.11-.03.17-.04.28l-.3-.05-.97-.15-.3-.05.05-.28.25-1.55c-1.36 1.25-3.24 1.67-5.63 1.25-1.98-.35-3.48-1.19-4.48-2.51-1-1.32-1.34-2.76-1.04-4.31.55-2.82.82-4.22 1.36-7.04l.05-.28c.12.02.18.03.29.06.37.07.56.11.94.18.12.02.18.03.29.06l-.05.28c-.53 2.81-.8 4.21-1.33 7.02-.22 1.16.05 2.26.82 3.26.79 1.04 1.94 1.69 3.39 1.95 1.45.25 2.82.05 4-.65 1.12-.67 1.78-1.63 1.97-2.78.45-2.82.68-4.23 1.14-7.05l.05-.28ZM77.88 129.78c-.12-.02-.18-.03-.3-.04-.39-.06-.58-.08-.97-.14-.12-.02-.18-.03-.3-.04.02-.11.03-.17.04-.28l1.8-12.15c.02-.11.03-.17.04-.28.12.02.18.03.29.04.38.06.56.08.94.14.12.02.18.03.29.04-.02.11-.02.17-.04.28-.09.62-.13.93-.22 1.56 1.31-1.27 3.11-1.75 5.43-1.45 1.92.25 3.41.99 4.46 2.23 1.06 1.24 1.5 2.65 1.33 4.22l-.8 7.13c-.01.11-.02.17-.03.28-.12-.01-.18-.02-.31-.03-.39-.04-.59-.07-.98-.11-.12-.01-.18-.02-.3-.04.01-.11.02-.17.03-.28.33-2.84.49-4.26.82-7.09.07-.59.02-1.14-.15-1.67-.17-.53-.46-1.04-.86-1.53-.4-.49-.89-.88-1.45-1.17-.56-.29-1.21-.48-1.94-.58-1.42-.18-2.74.08-3.87.8-1.08.7-1.72 1.67-1.89 2.82-.41 2.83-.61 4.24-1.01 7.07-.02.11-.02.17-.04.28ZM109.8 111.54c0 .11-.01.17-.02.29l-1.3 20.81c0 .11-.01.17-.02.29-.12 0-.18-.01-.31-.02-.39-.02-.59-.04-.98-.06-.12 0-.18-.01-.31-.02 0-.11.01-.17.02-.29.06-.85.09-1.28.14-2.14-.31.34-.66.65-1.04.92-.39.27-.81.51-1.28.7-.67.28-1.36.47-2.04.58-.69.11-1.38.13-2.07.08-2.27-.19-4.15-1.02-5.5-2.48-1.33-1.43-1.89-3.13-1.7-4.97.06-.61.2-1.18.42-1.72.22-.54.51-1.04.88-1.5.37-.46.81-.88 1.33-1.27s1.08-.73 1.65-.96c.6-.24 1.27-.39 1.95-.48.66-.09 1.36-.11 2.09-.05.35.03.7.08 1.03.14.33.06.66.15.98.26.32.11.64.24.95.39.32.15.63.31.93.48.28.17.54.36.78.57.23.21.45.42.64.63.19.21.37.44.54.68.28-4.26.43-6.4.71-10.66 0-.11.01-.17.02-.29.12 0 .17.01.29.02.37.02.56.04.93.06.12 0 .17.01.29.02Zm-14.84 13.85c-.14 1.45.3 2.78 1.36 3.91 1.11 1.18 2.59 1.85 4.35 1.99s3.33-.27 4.65-1.25c1.27-.94 1.95-2.17 2.04-3.61.03-.47 0-.94-.1-1.4a4.984 4.984 0 0 0-1.41-2.49c-1.16-1.17-2.58-1.82-4.28-1.96-1.7-.14-3.23.25-4.51 1.2-1.25.92-1.96 2.15-2.1 3.6ZM121.98 126.73c.04-1.58.6-3.02 1.64-4.33.31-.37.64-.71 1-1.02.36-.31.74-.58 1.14-.81.4-.23.82-.43 1.25-.59-.53-.37-.96-.85-1.31-1.39-.48-.75-.74-1.55-.72-2.38 0-.25.03-.49.07-.74.04-.25.11-.48.19-.7.08-.22.18-.43.29-.64.11-.21.24-.41.39-.61.15-.2.32-.38.52-.55.47-.43 1-.76 1.58-.98.58-.22 1.22-.33 1.91-.32.69 0 1.33.14 1.92.41s1.12.66 1.58 1.17l.09.09v3.02c-.22-.51-.34-.77-.56-1.28-.25-.57-.68-1.06-1.28-1.46-.29-.19-.61-.33-.94-.43-.34-.1-.71-.15-1.12-.15-.76 0-1.46.31-2.12.93-.66.63-1 1.37-1.01 2.23-.01.86.3 1.61.95 2.26.65.65 1.43.97 2.34.98h.71V120.82h-.54c-.85 0-1.64.14-2.38.43-.74.3-1.43.74-2.07 1.34-.65.6-1.14 1.24-1.47 1.94-.34.7-.51 1.46-.53 2.3-.04 1.64.56 3.07 1.82 4.28 1.26 1.21 2.78 1.83 4.56 1.84 1.78.01 3.31-.58 4.58-1.77s1.89-2.62 1.87-4.3c-.03-2.43-.04-3.65-.06-6.08-1.53.02-2.3.02-3.83.02h-.3V119.44h.29c3.64 0 5.46-.02 9.1-.11h.29v.29c0 .32.01.48.02.8v.29h-.3c-1.53.04-2.29.05-3.82.08.07 5.14.11 7.71.19 12.85v.29h-.31c-.37 0-.55 0-.92.01h-.31v-.29c-.01-.98-.02-1.47-.03-2.46-.26.38-.56.73-.91 1.05-.34.32-.75.61-1.22.88-1.34.83-2.81 1.23-4.39 1.22-2.23-.01-4.14-.78-5.68-2.29-1.55-1.51-2.28-3.29-2.22-5.33ZM167.15 119.18c.12-.01.18-.02.3-.03.38-.04.57-.05.95-.09.12-.01.18-.02.29-.03.01.11.02.17.03.28l1.1 11.2c.22 2.2-.3 4.01-1.55 5.43-1.28 1.45-3.14 2.29-5.56 2.48a9.63 9.63 0 0 1-3.91-.49c-1.23-.42-2.2-1.05-2.89-1.85-.03-.03-.04-.05-.07-.08v-.09c-.03-.52-.05-.79-.08-1.31-.03-.44-.04-.67-.07-1.11.26.37.38.56.64.93.55.84 1.41 1.52 2.58 2.01 1.23.51 2.47.71 3.69.62 1.88-.15 3.39-.81 4.41-1.98.99-1.14 1.39-2.71 1.22-4.59-.03-.35-.05-.53-.08-.88-.48.73-1.15 1.41-1.97 1.93-1.22.77-2.62 1.2-4.05 1.31-2.25.17-4.22-.35-5.79-1.57-1.57-1.21-2.39-2.79-2.5-4.63-.1-1.84.54-3.5 1.9-4.89 1.38-1.4 3.18-2.18 5.35-2.35.71-.06 1.41-.03 2.1.07.69.1 1.36.29 2 .56.23.09.44.2.64.32s.39.24.59.36c.19.13.37.26.53.41.16.15.31.3.45.46l-.2-2.13c-.01-.11-.02-.17-.03-.28Zm-11.76 7.39c.09 1.46.76 2.7 2.02 3.65 1.31.98 2.89 1.41 4.66 1.27.59-.05 1.14-.15 1.66-.31s1-.37 1.45-.65c.45-.28.86-.61 1.23-1.01.54-.56.92-1.17 1.15-1.83s.3-1.35.23-2.09c-.14-1.46-.83-2.68-2.05-3.6-1.28-.96-2.8-1.36-4.5-1.23-.57.04-1.12.14-1.64.3-.52.15-1 .36-1.45.63-.45.27-.86.6-1.24.98-.56.57-.97 1.17-1.22 1.81-.25.64-.36 1.32-.31 2.07ZM186.57 127.83c-1.28 1.74-3.06 2.77-5.34 3.06-.12.02-.18.02-.31.04-2.22.28-4.22-.16-5.88-1.34-1.63-1.16-2.53-2.7-2.72-4.5-.19-1.8.37-3.47 1.67-4.92 1.31-1.47 3.15-2.35 5.47-2.64.57-.07 1.15-.11 1.7-.08.53.03 1.06.13 1.53.25.48.13.94.3 1.4.53.45.22.89.51 1.33.85.09.06.14.08.23.14l-.18.23c-3.38 3.81-5.12 5.7-8.68 9.43 1.37.63 2.64.86 3.82.71 1.28-.16 2.37-.55 3.24-1.18.86-.61 1.54-1.39 2.02-2.33.17-.34.26-.5.43-.84.05.37.08.56.13.93.08.58.12.87.21 1.44 0 .05 0 .07.02.11-.03.04-.05.06-.08.1Zm-9.48-8.21c-.69.36-1.3.86-1.85 1.5-.53.62-.91 1.26-1.12 1.92-.22.67-.29 1.36-.21 2.08.15 1.32.72 2.46 1.73 3.4 3.22-3.51 4.8-5.28 7.87-8.85-.63-.35-1.28-.6-1.94-.72-.69-.12-1.43-.13-2.2-.03-.83.11-1.58.34-2.27.7ZM194.76 116.89a3.58 3.58 0 0 0-1.42-.05c-.31.05-.61.14-.89.26s-.55.28-.8.46a4.13 4.13 0 0 0-1.2 1.47 2.828 2.828 0 0 0-.24 1.68c.5 3.23.76 4.84 1.26 8.07.02.11.03.17.04.28l-.3.05-.97.15-.3.05c-.02-.11-.03-.17-.04-.28-.74-4.86-1.11-7.29-1.84-12.14-.02-.11-.03-.17-.04-.28.12-.02.18-.03.29-.04.38-.06.56-.09.94-.14.12-.02.18-.03.29-.05.02.11.03.17.04.28l.15.99c.28-.41.63-.78 1.06-1.12.72-.56 1.56-.92 2.54-1.08.98-.16 1.97 0 2.98.48.05.03.08.04.13.06 0 .06.01.08.02.14l.2 1.13c.05.27.07.41.12.68-.23-.16-.35-.23-.59-.39-.48-.32-.96-.54-1.43-.65ZM213.08 111.92c.02.11.04.17.06.28 1.07 4.8 1.6 7.19 2.67 11.99.02.11.04.17.06.28-.12.03-.18.04-.3.07-.39.09-.58.13-.96.21-.12.03-.18.04-.3.07-.02-.11-.04-.17-.06-.28-.19-.85-.28-1.27-.46-2.12-.15.29-.3.56-.47.82-.16.26-.35.5-.55.72-.2.22-.43.44-.67.67-.18.14-.37.27-.57.41-.2.14-.41.27-.61.39-.21.12-.41.23-.63.32-.21.09-.43.18-.65.27-.22.08-.45.16-.69.23-.24.07-.48.13-.72.17-2.22.45-4.24.17-5.96-.85-1.71-1.01-2.72-2.47-3.05-4.29-.33-1.82.11-3.54 1.3-5.09 1.2-1.56 2.9-2.55 5.04-2.99.7-.14 1.4-.2 2.11-.17s1.44.12 2.12.31c.88.25 1.66.7 2.29 1.26-.18-.83-.27-1.24-.45-2.06-.02-.11-.04-.17-.06-.28.12-.03.18-.04.29-.06.37-.08.56-.12.93-.21.12-.03.17-.04.29-.06Zm-12.32 9.1c.26 1.42 1.08 2.56 2.45 3.35 1.42.82 3.04 1.05 4.79.69.58-.12 1.12-.29 1.62-.51s.95-.49 1.37-.82c.41-.33.78-.71 1.1-1.15.47-.63.78-1.28.92-1.95s.14-1.37-.02-2.1c-.31-1.41-1.16-2.54-2.51-3.31-1.39-.79-2.96-1.01-4.64-.67-1.68.34-3.04 1.15-4.04 2.45-.96 1.25-1.32 2.61-1.06 4.03ZM228.46 99.27c.03.11.05.17.08.28 2.21 8.04 3.32 12.06 5.53 20.1.03.11.05.17.08.28-.12.03-.18.05-.3.08-.38.1-.57.16-.96.26-.12.03-.18.05-.3.08-.03-.11-.04-.17-.07-.28-.22-.83-.34-1.24-.56-2.07-.18.42-.41.83-.7 1.21-.28.38-.61.74-.99 1.08-.55.48-1.14.89-1.76 1.21-.62.33-1.27.58-1.95.75-2.22.56-4.28.39-6.04-.55-1.73-.92-2.81-2.34-3.23-4.14a6.25 6.25 0 0 1-.16-1.77c.03-.58.15-1.15.35-1.71.2-.55.48-1.1.85-1.64.37-.54.79-1.04 1.25-1.45.49-.42 1.08-.78 1.7-1.09.6-.3 1.26-.55 1.97-.73.35-.09.69-.16 1.03-.2.34-.05.68-.07 1.02-.07.34 0 .68.02 1.03.06.35.04.7.08 1.05.15.32.07.64.17.93.29s.56.25.82.39c.25.14.5.29.73.47-1.12-4.12-1.67-6.19-2.79-10.31-.03-.11-.04-.17-.07-.28.11-.03.17-.05.28-.08l.9-.25c.11-.03.17-.05.28-.08Zm-9.63 17.94c.33 1.42 1.19 2.53 2.56 3.25 1.43.75 3.06.9 4.79.47 1.72-.44 3.09-1.34 4.02-2.7.9-1.3 1.15-2.69.77-4.08a4.92 4.92 0 0 0-.55-1.29c-.24-.4-.54-.76-.9-1.07-.36-.32-.77-.59-1.25-.82-1.48-.73-3.05-.88-4.71-.46-1.67.42-2.99 1.29-3.9 2.61-.89 1.28-1.16 2.67-.83 4.09ZM249.99 113.12c-.97 1.94-2.58 3.26-4.8 3.94-.12.04-.18.05-.3.09-2.16.66-4.23.57-6.07-.31-1.81-.86-2.97-2.23-3.47-3.97-.49-1.74-.22-3.48.82-5.14 1.05-1.67 2.73-2.86 4.99-3.55a9.1 9.1 0 0 1 1.67-.37c.54-.06 1.07-.06 1.57-.01.5.04.99.13 1.48.28.49.14.98.35 1.46.61l.25.1c-.06.1-.08.15-.14.26-2.72 4.34-4.13 6.5-7.04 10.79 1.46.38 2.77.4 3.91.05 1.24-.38 2.26-.95 3.03-1.72.75-.75 1.29-1.64 1.61-2.64.12-.36.17-.54.29-.9.12.36.17.54.29.9.18.55.27.83.45 1.39.01.04.02.07.04.11-.02.04-.04.07-.06.11Zm-10.82-6.46c-.62.47-1.15 1.07-1.59 1.8-.42.7-.69 1.4-.79 2.09-.1.69-.06 1.39.14 2.08.37 1.28 1.13 2.3 2.29 3.05 2.61-4.01 3.88-6.03 6.32-10.08-.69-.24-1.38-.37-2.05-.37-.71 0-1.44.12-2.19.35-.8.25-1.52.61-2.14 1.08Z"/>
    </g>
    <g id="Zähne">
        <ellipse class="cls-4" cx="111.03" cy="59.39" rx="21.59" ry="26.25" id="Vektor_11"/>
        <ellipse class="cls-4" cx="71.91" cy="53.74" rx="20.29" ry="16.81" transform="rotate(-85.64 71.913 53.741)" id="Vektor_12"/>
        <ellipse class="cls-4" cx="38.97" cy="46.5" rx="19.44" ry="15.78" transform="rotate(-80.26 38.965 46.504)" id="Vektor_13"/>
        <ellipse class="cls-4" cx="155.05" cy="59.26" rx="21.59" ry="26.25" id="Vektor_21"/>
        <ellipse class="cls-4" cx="194.24" cy="53.51" rx="16.81" ry="20.29" transform="rotate(-4.36 194.349 53.568)" id="Vektor_22"/>
        <ellipse class="cls-4" cx="227.13" cy="46.34" rx="15.78" ry="19.44" transform="rotate(-9.74 227.109 46.363)" id="Vektor_23"/>
        <path d="M133.96 62.34c8.28.39 15.31.25 20.66 0 8.98-.42 15.82-1.3 22.83-2.21 7.93-1.02 14.14-2.08 17.54-2.69 4.63-.83 9.91-1.78 16.82-3.44 5.07-1.22 10.09-2.43 16.58-4.66a145.71 145.71 0 0 0 13.86-5.58" style="fill:none;stroke:#737373;stroke-linecap:round;stroke-miterlimit:100;stroke-width:1.5px" id="Vektor_Bogen"/>
        <rect class="cls-19" x="146.88" y="52.94" width="18.14" height="17.54" rx="2.83" ry="2.83" transform="rotate(-2.74 155.835 61.672)" id="Vektor_Bracket_21"/>
        <path class="cls-19" d="M199.25 48.95c-.15 0-.29.01-.44.03l-9.75 1.54c-1.54.24-2.6 1.7-2.36 3.24l1.46 9.24a2.842 2.842 0 0 0 2.8 2.39c.15 0 .29-.01.44-.03l9.75-1.54c1.54-.24 2.6-1.7 2.36-3.24l-1.46-9.24a2.842 2.842 0 0 0-2.8-2.39Z" id="Vektor_Bracket_22"/>
        <path class="cls-19" d="M231.11 41.2c-.26 0-.52.04-.78.11l-8.77 2.53c-1.5.43-2.37 2.01-1.94 3.51l2.39 8.3a2.85 2.85 0 0 0 2.73 2.05c.26 0 .52-.04.78-.11l8.77-2.53c1.5-.43 2.37-2.01 1.94-3.51l-2.39-8.3a2.85 2.85 0 0 0-2.73-2.05Z" id="Vektor_Bracket_23"/>
    </g>
</svg>
